<?xml version="1.0" standalone="no"?>
<!DOCTYPE svg PUBLIC "-//W3C//DTD SVG 20010904//EN"
 "http://www.w3.org/TR/2001/REC-SVG-20010904/DTD/svg10.dtd">
<svg version="1.0" xmlns="http://www.w3.org/2000/svg"
 width="700.000000pt" height="700.000000pt" viewBox="0 0 700.000000 700.000000"
 preserveAspectRatio="xMidYMid meet">
<metadata>
Created by potrace 1.14, written by Peter Selinger 2001-2017
</metadata>
<g transform="translate(0.000000,700.000000) scale(0.100000,-0.100000)"
fill="#000000" stroke="none">
<path d="M1970 4268 c0 -1064 2 -1093 55 -1302 261 -1010 1318 -1509 2175
-1026 122 69 240 163 356 283 221 229 367 506 441 841 l27 121 3 1033 4 1032
-135 0 -135 0 -4 -987 c-4 -938 -5 -993 -24 -1093 -101 -525 -446 -936 -903
-1074 -117 -35 -196 -46 -330 -46 -194 0 -339 34 -515 121 -366 181 -632 549
-717 994 -20 106 -21 145 -25 1098 l-4 987 -135 0 -134 0 0 -982z"/>
</g>
</svg>
