<svg width="26" height="20" viewBox="0 0 26 20" fill="none" xmlns="http://www.w3.org/2000/svg">
<path d="M9.18312 10.7733H22.71L20.5638 12.9231L21.6483 14.0079L25.6558 10.0039L21.6483 6L20.5638 7.0848L22.71 9.23456H9.18312V10.7733Z" fill="#81B168"/>
<path d="M10.0052 19.9998C11.8552 20.005 13.6699 19.494 15.2456 18.5246C16.8213 17.5549 18.0952 16.1651 18.9242 14.5114C19.0344 14.328 19.0635 14.1073 19.0043 13.9018C18.9451 13.6962 18.8031 13.5247 18.6123 13.4284C18.4215 13.3318 18.1992 13.3192 17.9986 13.3934C17.7979 13.4673 17.6372 13.6216 17.5551 13.8191C16.4015 16.0997 14.279 17.7367 11.7799 18.273C9.28121 18.8092 6.674 18.1872 4.68618 16.5808C2.69835 14.9745 1.543 12.5556 1.543 9.99991C1.543 7.44427 2.69835 5.0253 4.68618 3.41897C6.674 1.81263 9.28114 1.19062 11.7799 1.72685C14.279 2.26307 16.4015 3.90008 17.5551 6.18072C17.6372 6.37826 17.7979 6.53253 17.9986 6.60645C18.1992 6.68062 18.4215 6.668 18.6123 6.57142C18.8031 6.4751 18.9451 6.30357 19.0043 6.09804C19.0635 5.89251 19.0344 5.6718 18.9242 5.48842C17.8492 3.36154 16.0496 1.68874 13.8504 0.77108C11.651 -0.14658 9.1962 -0.248579 6.92809 0.483393C4.66031 1.21558 2.72846 2.73337 1.48061 4.76366C0.232491 6.79394 -0.249086 9.20308 0.122053 11.5574C0.493185 13.9114 1.69285 16.0556 3.50476 17.6035C5.31661 19.1514 7.62197 20.0013 10.0051 20L10.0052 19.9998Z" fill="#43464F"/>
</svg>
