<svg width="13" height="13" viewBox="0 0 13 13" fill="none" xmlns="http://www.w3.org/2000/svg">
<path fill-rule="evenodd" clip-rule="evenodd" d="M6.5 0.928571C3.42318 0.928571 0.928571 3.42318 0.928571 6.5C0.928571 9.57821 3.42318 12.0714 6.5 12.0714C9.57682 12.0714 12.0714 9.57821 12.0714 6.5C12.0714 3.42318 9.57682 0.928571 6.5 0.928571ZM0 6.5C0 2.91014 2.91014 0 6.5 0C10.0899 0 13 2.91014 13 6.5C13 10.0889 10.0899 13 6.5 13C2.91014 13 0 10.0889 0 6.5ZM3.82154 3.85034C4.00262 3.6688 4.29651 3.6688 4.47804 3.85034L6.5 5.87229L8.52195 3.85034C8.70349 3.6688 8.99738 3.6688 9.17846 3.85034C9.35999 4.03141 9.35999 4.32574 9.17846 4.50681L7.1565 6.52879L9.17846 8.55213C9.35999 8.73321 9.35999 9.02572 9.17846 9.20679C8.99738 9.38787 8.70349 9.38787 8.52195 9.20679L6.5 7.18529L4.47804 9.20679C4.29651 9.38787 4.00262 9.38787 3.82154 9.20679C3.64001 9.02572 3.64001 8.73321 3.82154 8.55213L5.8435 6.52879L3.82154 4.50681C3.64001 4.32574 3.64001 4.03141 3.82154 3.85034Z" fill="#FC5239"/>
</svg>
