<svg width="16" height="16" viewBox="0 0 16 16" fill="none" xmlns="http://www.w3.org/2000/svg">
<path fill-rule="evenodd" clip-rule="evenodd" d="M8 16.001C3.56627 16.001 0 12.4183 0 8C0 3.58169 3.56627 0 8 0C12.4337 0 16 3.58169 16 8C16 12.4183 12.4337 16.001 8 16.001ZM7.9995 1.59997C4.43323 1.59997 1.54167 4.46551 1.54167 7.99997C1.54167 11.5354 4.43323 14.4 7.9995 14.4C11.5658 14.4 14.3609 11.5354 14.3609 7.99997C14.3609 4.46551 11.5658 1.59997 7.9995 1.59997ZM8.00008 7.00049C8.5784 7.00049 8.96394 7.44772 8.96394 8.00001V11.2C8.96394 11.7523 8.5784 12.2005 8.00008 12.2005C7.42177 12.2005 6.93984 11.7523 6.93984 11.2V8.00001C6.93984 7.44772 7.42177 7.00049 8.00008 7.00049ZM8.00008 4.00003C7.42177 4.00003 6.93984 4.44823 6.93984 5.00051C6.93984 5.5528 7.42177 6.00003 8.00008 6.00003C8.5784 6.00003 8.96394 5.5528 8.96394 5.00051C8.96394 4.44823 8.5784 4.00003 8.00008 4.00003Z" fill="#81B168"/>
</svg>
