<svg width="31" height="30" viewBox="0 0 31 30" fill="none" xmlns="http://www.w3.org/2000/svg">
<path d="M15.0336 0C6.76009 0 0 6.72646 0 15C0 23.2735 6.76009 30 15.0336 30C23.3072 30 30.0673 23.2735 30.0673 15C30.0673 6.72646 23.3072 0 15.0336 0ZM15.0336 28.7892C7.43274 28.7892 1.21076 22.6009 1.21076 15C1.21076 7.3991 7.43274 1.21076 15.0336 1.21076C22.6345 1.21076 28.8565 7.3991 28.8565 15C28.8565 22.6009 22.6345 28.7892 15.0336 28.7892Z" fill="#43464F"/>
<path d="M15.0336 18.2963C15.37 18.2963 15.6389 18.0272 15.6389 17.691V5.91971C15.6389 5.5833 15.3698 5.31445 15.0336 5.31445C14.6972 5.31445 14.4283 5.58354 14.4283 5.91971V17.691C14.4283 18.0272 14.6972 18.2963 15.0336 18.2963Z" fill="#FC5239"/>
<path d="M15.0334 20.7852C14.4617 20.7852 14.0244 21.256 14.0244 21.7942C14.0244 22.3659 14.4953 22.8032 15.0334 22.8032C15.6052 22.8032 16.0425 22.3324 16.0425 21.7942C16.0425 21.256 15.6052 20.7852 15.0334 20.7852Z" fill="#FC5239"/>
</svg>
