<svg width="93" height="23" viewBox="0 0 93 23" fill="none" xmlns="http://www.w3.org/2000/svg">
<path d="M3.60104 6.40409C3.0917 6.40409 2.66727 6.27677 2.28526 6.0221C1.90326 5.76743 1.6061 5.47031 1.39388 5.08831V8.69612H0.375244V0.334483H1.26658V1.43804C1.52124 1.05603 1.81834 0.801376 2.20034 0.546707C2.58235 0.334483 3.0068 0.207153 3.43125 0.207153C3.8557 0.207153 4.19525 0.292033 4.53481 0.461812C4.87437 0.631591 5.17147 0.843831 5.42614 1.14095C5.68081 1.43806 5.8506 1.73517 6.02038 2.11717C6.19016 2.49918 6.2326 2.88118 6.2326 3.26319C6.2326 3.68764 6.14771 4.06963 6.02038 4.45164C5.89304 4.83364 5.7233 5.13075 5.46863 5.42786C5.21396 5.72498 4.95929 5.93719 4.61973 6.10697C4.28017 6.27675 3.98305 6.40409 3.60104 6.40409ZM3.3039 5.51276C3.60101 5.51276 3.85569 5.4703 4.11036 5.34297C4.36503 5.21564 4.53482 5.04585 4.7046 4.83363C4.87438 4.6214 5.00172 4.4092 5.08661 4.11208C5.1715 3.85742 5.21392 3.56029 5.21392 3.30562C5.21392 3.00851 5.17151 2.71139 5.04418 2.45673C4.95929 2.20206 4.78951 1.94738 4.61973 1.73516C4.44995 1.52293 4.23773 1.39561 3.98306 1.26827C3.72839 1.14094 3.47371 1.09848 3.17659 1.09848C3.00681 1.09848 2.79457 1.14092 2.62479 1.22581C2.45501 1.3107 2.24282 1.3956 2.07304 1.52293C1.90326 1.65027 1.77592 1.7776 1.64859 1.94738C1.52126 2.11716 1.43632 2.28695 1.39388 2.45673V4.15452C1.47877 4.36674 1.56369 4.53652 1.69102 4.7063C1.81836 4.87608 1.98814 5.00341 2.11547 5.13075C2.28525 5.25808 2.455 5.34297 2.66722 5.42786C2.87945 5.47031 3.09167 5.51276 3.3039 5.51276Z" fill="white"/>
<path d="M8.99153 6.40432C8.69442 6.40432 8.43978 6.36188 8.22755 6.27699C7.97288 6.1921 7.76066 6.06476 7.59088 5.89498C7.4211 5.7252 7.29377 5.51299 7.16643 5.30076C7.08154 5.08854 6.99664 4.83387 6.99664 4.5792C6.99664 4.32453 7.0391 4.06986 7.16643 3.81519C7.29377 3.56053 7.46353 3.39074 7.67575 3.22096C7.88797 3.05118 8.1851 2.92386 8.48221 2.83897C8.77933 2.75408 9.1189 2.71161 9.5009 2.71161C9.79801 2.71161 10.0951 2.75406 10.3922 2.79651C10.6893 2.83895 10.944 2.92384 11.1562 3.00873V2.54185C11.1562 2.07496 11.0289 1.69295 10.7318 1.39583C10.4771 1.09872 10.0527 0.971384 9.58577 0.971384C8.99154 0.971384 8.35486 1.1836 7.71818 1.65049L7.37866 1.01382C8.14266 0.504481 8.90663 0.249817 9.67064 0.249817C10.4346 0.249817 11.0713 0.462041 11.4958 0.88649C11.9202 1.31094 12.1325 1.90518 12.1325 2.62674V5.04608C12.1325 5.30075 12.2173 5.38565 12.4296 5.42809V6.27699C12.3447 6.27699 12.2173 6.31942 12.1749 6.31942C12.1324 6.31942 12.0476 6.31942 11.9627 6.31942C11.7504 6.31942 11.6231 6.277 11.4958 6.14966C11.3685 6.02233 11.326 5.89499 11.2836 5.72521L11.2411 5.30076C10.9865 5.64032 10.6469 5.93742 10.2224 6.1072C9.88288 6.27698 9.45842 6.40432 8.99153 6.40432ZM9.24619 5.64032C9.58575 5.64032 9.92533 5.55543 10.2224 5.42809C10.5196 5.30076 10.7742 5.13097 10.9015 4.91875C11.0289 4.79142 11.1138 4.62164 11.1138 4.4943V3.60297C10.6469 3.43319 10.1376 3.30585 9.58577 3.30585C9.07643 3.30585 8.69442 3.39075 8.35486 3.60297C8.05774 3.81519 7.88797 4.11231 7.88797 4.45187C7.88797 4.62165 7.9304 4.79142 7.97284 4.91875C8.05773 5.04608 8.14266 5.17343 8.22755 5.30076C8.35489 5.38565 8.48222 5.47053 8.652 5.55542C8.90667 5.59787 9.07641 5.64032 9.24619 5.64032Z" fill="white"/>
<path d="M13.7878 0.334656H14.764V5.3856H17.3107V0.334656H18.287V5.3856H19.3481V8.10206H18.4992V6.2345H13.7878V0.334656Z" fill="white"/>
<path d="M21.343 4.87637L24.5688 0.377197H25.3752V6.31948H24.399V1.90523L21.2157 6.31948H20.3668V0.377197H21.343V4.87637Z" fill="white"/>
<path d="M29.5773 6.40421C29.1104 6.40421 28.7284 6.31933 28.3464 6.14955C27.9644 5.97977 27.6673 5.76753 27.4126 5.47042C27.1579 5.17331 26.9457 4.8762 26.8184 4.49419C26.691 4.11219 26.6061 3.73019 26.6061 3.30574C26.6061 2.8813 26.691 2.4993 26.8184 2.11729C26.9457 1.73529 27.1579 1.43818 27.4126 1.14107C27.6673 0.843953 28.0068 0.631713 28.3464 0.461934C28.7284 0.292155 29.1104 0.207275 29.5348 0.207275C29.9593 0.207275 30.3838 0.292155 30.7658 0.461934C31.1478 0.631713 31.4449 0.843953 31.6995 1.14107C31.9542 1.43818 32.1664 1.73529 32.2938 2.11729C32.4211 2.4993 32.506 2.8813 32.506 3.30574C32.506 3.73019 32.4211 4.11219 32.2938 4.49419C32.1664 4.8762 31.9542 5.17331 31.6995 5.47042C31.4449 5.76753 31.1053 5.97977 30.7658 6.14955C30.4686 6.31933 30.0442 6.40421 29.5773 6.40421ZM27.6248 3.34818C27.6248 3.64529 27.6673 3.94241 27.7946 4.19708C27.8795 4.45174 28.0493 4.70643 28.2191 4.87621C28.3888 5.04599 28.6011 5.21576 28.8557 5.34309C29.1104 5.47043 29.365 5.51288 29.6197 5.51288C29.8744 5.51288 30.1291 5.47043 30.3837 5.34309C30.6384 5.21576 30.8506 5.08843 31.0204 4.87621C31.1902 4.66398 31.36 4.45175 31.4449 4.15464C31.5298 3.89997 31.6147 3.60286 31.6147 3.30574C31.6147 3.00863 31.5722 2.71152 31.4449 2.45685C31.36 2.20218 31.1902 1.9475 31.0204 1.73528C30.8506 1.52306 30.6384 1.39573 30.3837 1.2684C30.1291 1.14106 29.8744 1.09861 29.6197 1.09861C29.365 1.09861 29.1104 1.14106 28.8557 1.2684C28.6011 1.39573 28.3888 1.5655 28.2191 1.73528C28.0493 1.9475 27.922 2.15973 27.7946 2.45685C27.6673 2.75396 27.6248 3.00862 27.6248 3.34818Z" fill="white"/>
<path d="M34.798 2.79645H37.8116V0.334656H38.7879V6.27693H37.8116V3.64535H34.798V6.27693H33.8218V0.334656H34.798V2.79645Z" fill="white"/>
<path d="M40.4432 0.334656H41.4194V2.372H42.523C42.7777 2.372 43.0323 2.41444 43.287 2.49933C43.5417 2.58422 43.7539 2.71157 43.9661 2.88135C44.1783 3.05113 44.3057 3.26336 44.433 3.47558C44.5603 3.73025 44.6028 4.02737 44.6028 4.32448C44.6028 4.6216 44.5603 4.96115 44.433 5.17338C44.3057 5.3856 44.1359 5.59781 43.9661 5.76759C43.7539 5.93737 43.5417 6.02225 43.287 6.10714C43.0323 6.19203 42.7777 6.2345 42.523 6.2345H40.4432V0.334656ZM42.523 5.42804C42.8625 5.42804 43.1172 5.34316 43.3294 5.17338C43.5417 5.0036 43.6265 4.70648 43.6265 4.36692C43.6265 3.98491 43.4992 3.73024 43.287 3.51802C43.0748 3.34824 42.8201 3.2209 42.523 3.2209H41.4194V5.42804H42.523ZM45.197 0.334656H46.1732V6.27693H45.197V0.334656Z" fill="white"/>
<path d="M55.4687 6.27693H54.4925V1.22599H51.6486V6.27693H50.6724V0.334656H55.4687V6.27693Z" fill="white"/>
<path d="M58.1003 4.87637L61.3261 0.377197H62.1325V6.31948H61.1563V1.90523L57.9729 6.31948H57.124V0.377197H58.1003V4.87637Z" fill="white"/>
<path d="M66.1648 6.27704H65.1886V1.22609H63.1937V0.377197H68.1597V1.22609H66.1648V6.27704Z" fill="white"/>
<path d="M70.7488 6.40432C70.4517 6.40432 70.197 6.36188 69.9848 6.27699C69.7301 6.1921 69.5179 6.06476 69.3481 5.89498C69.1784 5.7252 69.051 5.51299 68.9237 5.30076C68.8388 5.08854 68.7539 4.83387 68.7539 4.5792C68.7539 4.32453 68.7964 4.06986 68.9237 3.81519C69.051 3.56053 69.2208 3.39074 69.433 3.22096C69.6452 3.05118 69.9424 2.92386 70.2395 2.83897C70.5366 2.75408 70.8762 2.71161 71.2582 2.71161C71.5553 2.71161 71.8524 2.75406 72.1495 2.79651C72.4466 2.83895 72.7012 2.92384 72.9135 3.00873V2.54185C72.9135 2.07496 72.7861 1.69295 72.489 1.39583C72.2344 1.09872 71.8099 0.971384 71.343 0.971384C70.7488 0.971384 70.1121 1.1836 69.4754 1.65049L69.1359 1.01382C69.8999 0.504481 70.6639 0.249817 71.4279 0.249817C72.1919 0.249817 72.8286 0.462041 73.253 0.88649C73.6775 1.31094 73.8897 1.90518 73.8897 2.62674V5.04608C73.8897 5.30075 73.9746 5.38565 74.1868 5.42809V6.27699C74.1019 6.27699 73.9746 6.31942 73.9322 6.31942C73.8897 6.31942 73.8048 6.31942 73.7199 6.31942C73.5077 6.31942 73.3804 6.277 73.253 6.14966C73.1257 6.02233 73.0833 5.89499 73.0408 5.72521L72.9984 5.30076C72.7437 5.64032 72.4042 5.93742 71.9797 6.1072C71.6401 6.27698 71.2157 6.40432 70.7488 6.40432ZM71.0035 5.64032C71.343 5.64032 71.6826 5.55543 71.9797 5.42809C72.2768 5.30076 72.5315 5.13097 72.6588 4.91875C72.7861 4.79142 72.871 4.62164 72.871 4.4943V3.60297C72.4041 3.43319 71.8948 3.30585 71.343 3.30585C70.8337 3.30585 70.4517 3.39075 70.1121 3.60297C69.815 3.81519 69.6452 4.11231 69.6452 4.45187C69.6452 4.62165 69.6877 4.79142 69.7301 4.91875C69.815 5.04608 69.8999 5.17343 69.9848 5.30076C70.1122 5.38565 70.2395 5.47053 70.4093 5.55542C70.6639 5.59787 70.8337 5.64032 71.0035 5.64032Z" fill="white"/>
<path d="M76.5212 2.79645H79.5349V0.334656H80.5111V6.27693H79.5349V3.64535H76.5212V6.27693H75.545V0.334656H76.5212V2.79645Z" fill="white"/>
<path d="M83.1427 4.87637L86.3685 0.377197H87.175V6.31948H86.1987V1.90523L83.0153 6.31948H82.1664V0.377197H83.1427V4.87637Z" fill="white"/>
<path d="M89.7641 3.94257C89.4246 3.81524 89.1699 3.60301 88.9152 3.34834C88.703 3.05122 88.5756 2.71167 88.5756 2.24478C88.5756 1.94767 88.6181 1.693 88.7454 1.48078C88.8303 1.22611 89.0001 1.05632 89.1699 0.886541C89.3397 0.716761 89.5519 0.589442 89.8066 0.504553C90.0612 0.419663 90.3159 0.377197 90.613 0.377197H92.8201V6.31948H91.8439V4.1548H90.7403L89.467 6.31948H88.321L89.7641 3.94257ZM91.8439 3.26347V1.22609H90.6555C90.5281 1.22609 90.4008 1.26854 90.2734 1.31099C90.1461 1.35343 90.0188 1.43832 89.9339 1.52321C89.849 1.6081 89.7641 1.73543 89.6792 1.86277C89.5943 1.9901 89.5943 2.15988 89.5943 2.28722C89.5943 2.58433 89.6792 2.83902 89.8914 3.05124C90.1036 3.22102 90.3159 3.3059 90.613 3.3059H91.8439V3.26347Z" fill="white"/>
<path d="M6.61461 21.2175C6.10527 21.2175 5.6384 21.1326 5.2564 20.9628C4.83195 20.793 4.49235 20.5384 4.15279 20.1988C3.85567 19.8592 3.60104 19.4772 3.38881 19.0528C3.21903 18.5859 3.09168 18.119 3.04923 17.5672H1.6061V21.175H0.587463V13.1105H1.6061V16.6334H3.09167C3.13411 16.0817 3.26146 15.5723 3.47368 15.1479C3.68591 14.7234 3.9406 14.3414 4.23771 14.0019C4.53482 13.6623 4.91682 13.4501 5.34127 13.2803C5.76571 13.1105 6.19015 13.0256 6.65705 13.0256C7.20883 13.0256 7.71817 13.1105 8.14261 13.3227C8.60951 13.535 8.99154 13.8321 9.28866 14.1716C9.62822 14.5536 9.84041 14.9781 10.0526 15.4874C10.2224 15.9968 10.3073 16.5485 10.3073 17.1428C10.3073 17.7794 10.2224 18.3312 10.0102 18.8406C9.84042 19.3499 9.58573 19.7743 9.24617 20.1139C8.90661 20.4535 8.52464 20.7506 8.05775 20.9204C7.6333 21.1326 7.12395 21.2175 6.61461 21.2175ZM4.06792 17.1428C4.06792 17.6521 4.11038 18.0766 4.23771 18.4586C4.36504 18.8406 4.5348 19.1801 4.74703 19.4348C4.95925 19.6895 5.25638 19.9017 5.55349 20.0715C5.8506 20.2412 6.23261 20.2837 6.61461 20.2837C7.03906 20.2837 7.37861 20.1988 7.71817 20.0715C8.05773 19.9017 8.31239 19.6895 8.56706 19.4348C8.82173 19.1801 8.9491 18.8406 9.07643 18.4161C9.20377 17.9917 9.24617 17.6097 9.24617 17.1428C9.24617 16.6334 9.16128 16.209 9.03395 15.827C8.90661 15.445 8.73686 15.1054 8.48219 14.8508C8.22753 14.5961 7.97286 14.3839 7.6333 14.2141C7.29374 14.0443 6.95418 14.0019 6.57218 14.0019C6.19017 14.0019 5.80817 14.0868 5.51105 14.2141C5.21394 14.3839 4.91682 14.5961 4.70459 14.8508C4.49237 15.1054 4.32261 15.445 4.19528 15.827C4.11039 16.209 4.06792 16.6759 4.06792 17.1428Z" fill="white"/>
<path d="M10.562 20.3687C10.8167 20.3263 10.9864 20.2838 11.1562 20.1989C11.326 20.114 11.4533 19.9442 11.5806 19.6896C11.708 19.4349 11.7929 19.0954 11.8778 18.6709C11.9627 18.2465 12.0476 17.6522 12.09 16.9307L12.2598 15.2753H15.9525V21.2176H14.9762V16.0818H13.1936L13.0238 17.3551C12.9389 18.1191 12.8116 18.7558 12.6843 19.2651C12.5569 19.7745 12.4296 20.1565 12.2598 20.4536C12.09 20.7507 11.8778 20.9629 11.6231 21.0903C11.3685 21.2176 11.0713 21.3025 10.7317 21.3025L10.562 20.3687Z" fill="white"/>
<path d="M18.584 19.7745L21.8099 15.2753H22.6163V21.2176H21.6401V16.8033L18.4567 21.2176H17.6078V15.2753H18.584V19.7745Z" fill="white"/>
<path d="M25.2479 19.7745L28.4737 15.2753H29.2802V21.2176H28.3039V16.8033L25.1206 21.2176H24.2717V15.2753H25.2479V19.7745Z" fill="white"/>
<path d="M39.9339 19.0952C39.9339 19.3923 39.8914 19.6894 39.7641 19.9441C39.6368 20.1988 39.467 20.411 39.2548 20.6232C39.0425 20.793 38.7879 20.9628 38.4907 21.0477C38.1936 21.1326 37.8965 21.175 37.557 21.175H33.7369V13.1105H37.7268C38.0239 13.1105 38.2785 13.1529 38.4907 13.2803C38.703 13.4076 38.9152 13.5774 39.085 13.7471C39.2548 13.9594 39.3821 14.1716 39.467 14.4263C39.5519 14.6809 39.5943 14.9356 39.5943 15.1903C39.5943 15.5723 39.5094 15.9543 39.2972 16.2938C39.085 16.6334 38.8303 16.8881 38.4483 17.0579C38.9152 17.1852 39.2547 17.4399 39.5519 17.8219C39.8065 18.1614 39.9339 18.5859 39.9339 19.0952ZM34.7556 14.0018V16.6759H37.3023C37.4721 16.6759 37.6419 16.6334 37.8116 16.5485C37.9814 16.4636 38.1088 16.3787 38.1936 16.2514C38.321 16.1241 38.4059 15.9967 38.4483 15.827C38.5332 15.6572 38.5332 15.4874 38.5332 15.3176C38.5332 15.1478 38.4908 14.9356 38.4483 14.7658C38.4059 14.5961 38.321 14.4687 38.1936 14.3414C38.1088 14.214 37.9814 14.1292 37.8116 14.0443C37.6843 13.9594 37.5145 13.9594 37.3448 13.9594H34.7556V14.0018ZM38.9152 18.9254C38.9152 18.7556 38.8728 18.5859 38.8303 18.4161C38.7454 18.2463 38.6606 18.0765 38.5757 17.9492C38.4483 17.8219 38.321 17.737 38.1936 17.6521C38.0239 17.5672 37.8965 17.5247 37.6843 17.5247H34.7981V20.2837H37.5994C37.7692 20.2837 37.9814 20.2412 38.1087 20.1563C38.2785 20.0714 38.4058 19.9865 38.5332 19.8592C38.6605 19.7319 38.7454 19.6045 38.8303 19.4348C38.9152 19.265 38.9152 19.0952 38.9152 18.9254Z" fill="white"/>
<path d="M41.4619 15.2328H42.4381V17.2702H43.5417C43.7963 17.2702 44.051 17.3126 44.3057 17.3975C44.5604 17.4824 44.7726 17.6097 44.9848 17.7795C45.197 17.9493 45.3243 18.1615 45.4517 18.3737C45.579 18.6284 45.6215 18.9255 45.6215 19.2226C45.6215 19.5622 45.579 19.8593 45.4517 20.0715C45.3243 20.3262 45.1546 20.496 44.9848 20.6657C44.7726 20.8355 44.5604 20.9204 44.3057 21.0053C44.051 21.0902 43.7963 21.1326 43.5417 21.1326H41.4619V15.2328ZM43.5417 20.3262C43.8812 20.3262 44.1359 20.2413 44.3481 20.0715C44.5603 19.9017 44.6452 19.6046 44.6452 19.265C44.6452 18.883 44.5179 18.6284 44.3057 18.4162C44.0935 18.2464 43.8388 18.1191 43.5417 18.1191H42.4381V20.3262H43.5417ZM46.2157 15.2328H47.1919V21.1751H46.2157V15.2328Z" fill="white"/>
<path d="M48.4228 18.2039C48.4228 17.7794 48.5077 17.3974 48.635 17.0154C48.7623 16.6334 48.9746 16.3363 49.2293 16.0392C49.4839 15.7421 49.8235 15.5299 50.163 15.3601C50.545 15.1903 50.927 15.1054 51.3939 15.1054C51.9882 15.1054 52.4975 15.2328 52.9219 15.4874C53.3464 15.7421 53.686 16.0816 53.8982 16.5485L52.9219 16.8457C52.7522 16.5485 52.5399 16.3363 52.2853 16.209C52.0306 16.0392 51.691 15.9968 51.3939 15.9968C51.1393 15.9968 50.8846 16.0392 50.6299 16.1665C50.3752 16.2939 50.163 16.4212 49.9932 16.6334C49.8234 16.8457 49.6961 17.0579 49.5688 17.3125C49.4839 17.5672 49.399 17.8643 49.399 18.2039C49.399 18.501 49.4414 18.7981 49.5688 19.0952C49.6961 19.3923 49.8234 19.6046 49.9932 19.8168C50.163 20.029 50.3752 20.1564 50.6299 20.2837C50.8846 20.411 51.1393 20.4535 51.3939 20.4535C51.5637 20.4535 51.7335 20.411 51.9032 20.3686C52.073 20.3261 52.2428 20.2412 52.3702 20.1564C52.4975 20.0715 52.6248 19.9866 52.7521 19.8592C52.8795 19.7319 52.9219 19.647 52.9644 19.5197L53.9406 19.8168C53.8557 20.029 53.7284 20.2412 53.5586 20.411C53.3888 20.5808 53.219 20.7506 52.9644 20.8779C52.7521 21.0053 52.4975 21.0901 52.2428 21.175C51.9882 21.2599 51.691 21.3024 51.3939 21.3024C50.927 21.3024 50.545 21.2175 50.163 21.0477C49.781 20.8779 49.4839 20.6657 49.2293 20.3686C48.9746 20.0715 48.7624 19.7744 48.5926 19.3924C48.5077 19.0103 48.4228 18.6283 48.4228 18.2039Z" fill="white"/>
<path d="M57.6333 21.3024C57.1664 21.3024 56.7845 21.2175 56.4025 21.0477C56.0204 20.8779 55.7233 20.6657 55.4686 20.3686C55.214 20.0715 55.0017 19.7744 54.8744 19.3924C54.7471 19.0103 54.6622 18.6283 54.6622 18.2039C54.6622 17.7794 54.7471 17.3974 54.8744 17.0154C55.0017 16.6334 55.214 16.3363 55.4686 16.0392C55.7233 15.7421 56.0629 15.5299 56.4025 15.3601C56.7845 15.1903 57.1664 15.1054 57.5909 15.1054C58.0153 15.1054 58.4398 15.1903 58.8218 15.3601C59.2038 15.5299 59.5009 15.7421 59.7556 16.0392C60.0102 16.3363 60.2225 16.6334 60.3498 17.0154C60.4771 17.3974 60.562 17.7794 60.562 18.2039C60.562 18.6283 60.4771 19.0103 60.3498 19.3924C60.2225 19.7744 60.0102 20.0715 59.7556 20.3686C59.5009 20.6657 59.1613 20.8779 58.8218 21.0477C58.4822 21.2175 58.1002 21.3024 57.6333 21.3024ZM55.6809 18.2463C55.6809 18.5435 55.7233 18.8406 55.8506 19.0952C55.9355 19.3499 56.1053 19.6046 56.2751 19.7743C56.4449 19.9441 56.6571 20.1139 56.9118 20.2413C57.1664 20.3686 57.4211 20.411 57.6758 20.411C57.9305 20.411 58.1851 20.3686 58.4398 20.2413C58.6944 20.1139 58.9067 19.9866 59.0764 19.7743C59.2462 19.5621 59.416 19.3499 59.5009 19.0528C59.5858 18.7981 59.6707 18.501 59.6707 18.2039C59.6707 17.9068 59.6282 17.6096 59.5009 17.355C59.416 17.1003 59.2462 16.8457 59.0764 16.6334C58.9067 16.4212 58.6944 16.2939 58.4398 16.1665C58.1851 16.0392 57.9305 15.9968 57.6758 15.9968C57.4211 15.9968 57.1664 16.0392 56.9118 16.1665C56.6571 16.2939 56.4449 16.4637 56.2751 16.6334C56.1053 16.8032 55.978 17.0579 55.8506 17.355C55.7233 17.6096 55.6809 17.9068 55.6809 18.2463Z" fill="white"/>
<path d="M61.8778 15.2328H62.8541V20.2837H65.4008V15.2328H66.377V20.2837H67.4381V23.0002H66.5892V21.1326H61.8778V15.2328Z" fill="white"/>
<path d="M71.9797 15.2328H73.0832L70.7488 18.1191L73.253 21.1751H72.1495L70.1121 18.5859H69.433V21.1751H68.4567V15.2328H69.433V17.8219H70.0272L71.9797 15.2328Z" fill="white"/>
<path d="M76.3515 21.3024C75.8846 21.3024 75.5026 21.2175 75.1206 21.0477C74.7386 20.8779 74.4415 20.6657 74.1868 20.3686C73.9321 20.0715 73.7199 19.7744 73.5926 19.3924C73.4653 19.0103 73.3804 18.6283 73.3804 18.2039C73.3804 17.7794 73.4653 17.3974 73.5926 17.0154C73.7199 16.6334 73.9321 16.3363 74.1868 16.0392C74.4415 15.7421 74.781 15.5299 75.1206 15.3601C75.5026 15.1903 75.8846 15.1054 76.309 15.1054C76.7335 15.1054 77.1579 15.1903 77.5399 15.3601C77.9219 15.5299 78.2191 15.7421 78.4738 16.0392C78.7284 16.3363 78.9406 16.6334 79.0679 17.0154C79.1953 17.3974 79.2802 17.7794 79.2802 18.2039C79.2802 18.6283 79.1953 19.0103 79.0679 19.3924C78.9406 19.7744 78.7284 20.0715 78.4738 20.3686C78.2191 20.6657 77.8795 20.8779 77.5399 21.0477C77.2428 21.2175 76.8184 21.3024 76.3515 21.3024ZM74.399 18.2463C74.399 18.5435 74.4415 18.8406 74.5688 19.0952C74.6537 19.3499 74.8235 19.6046 74.9932 19.7743C75.163 19.9441 75.3752 20.1139 75.6299 20.2413C75.8846 20.3686 76.1393 20.411 76.3939 20.411C76.6486 20.411 76.9033 20.3686 77.1579 20.2413C77.4126 20.1139 77.6248 19.9866 77.7946 19.7743C77.9644 19.5621 78.1342 19.3499 78.219 19.0528C78.3039 18.7981 78.3888 18.501 78.3888 18.2039C78.3888 17.9068 78.3464 17.6096 78.219 17.355C78.1342 17.1003 77.9644 16.8457 77.7946 16.6334C77.6248 16.4212 77.4126 16.2939 77.1579 16.1665C76.9033 16.0392 76.6486 15.9968 76.3939 15.9968C76.1393 15.9968 75.8846 16.0392 75.6299 16.1665C75.3752 16.2939 75.163 16.4637 74.9932 16.6334C74.8235 16.8032 74.6961 17.0579 74.5688 17.355C74.4415 17.6096 74.399 17.9068 74.399 18.2463Z" fill="white"/>
<path d="M81.5723 19.7743L84.7981 15.2752H85.6045V21.2175H84.6283V16.8032L81.445 21.2175H80.5961V15.2752H81.5723V19.7743ZM84.9679 12.8983C84.9254 13.3227 84.7557 13.6198 84.4585 13.832C84.1614 14.0443 83.737 14.1292 83.2276 14.1292C82.7183 14.1292 82.2938 14.0443 81.9967 13.832C81.6996 13.6198 81.5298 13.3227 81.4874 12.8983H82.0816C82.0816 13.1954 82.2089 13.4076 82.4212 13.5349C82.6334 13.6198 82.8881 13.7047 83.2276 13.7047C83.5672 13.7047 83.8219 13.6623 84.0341 13.5349C84.2463 13.4076 84.3312 13.2378 84.3736 12.8983H84.9679Z" fill="white"/>
</svg>
