<svg width="103" height="25" viewBox="0 0 103 25" fill="none" xmlns="http://www.w3.org/2000/svg">
<path d="M50.6367 0.721802H49.0662V23.642H50.6367V0.721802Z" fill="white"/>
<path d="M19.2275 13.1581C19.2275 18.5486 15.2801 22.9205 10.399 22.9205C5.51783 22.9205 1.57044 18.5486 1.57044 13.1581V0.721802H0V13.1581C0 19.3975 4.66893 24.4909 10.399 24.4909C16.129 24.4909 20.798 19.3975 20.798 13.1581V0.721802H19.2275V13.1581Z" fill="white"/>
<path d="M43.1664 21.2651L26.9101 0.806684L26.8676 0.721802H25.2123V23.6845H26.7827V3.14116L43.0816 23.6845H44.6944V0.721802H43.1664V21.2651Z" fill="white"/>
<path d="M90.2802 0C83.7861 0 78.5229 5.51784 78.5229 12.2666C78.5229 19.0153 83.7861 24.5331 90.2802 24.5331C96.7742 24.5331 102.037 19.0153 102.037 12.2666C102.037 5.4754 96.7742 0 90.2802 0ZM100.509 12.2666C100.509 18.1664 95.9253 22.9627 90.2802 22.9627C84.635 22.9627 80.051 18.1664 80.051 12.2666C80.051 6.36674 84.635 1.57046 90.2802 1.57046C95.9253 1.57046 100.509 6.36674 100.509 12.2666Z" fill="white"/>
<path d="M66.4262 1.57046C69.7793 1.57046 72.9202 3.31069 74.8302 6.19694L74.9152 6.36673L76.2309 5.51783L76.1461 5.34804C73.9389 1.9949 70.3311 0 66.4262 0C59.9321 0 54.6689 5.51784 54.6689 12.2666C54.6689 19.0153 59.9321 24.5331 66.4262 24.5331C70.2887 24.5331 73.8965 22.5807 76.1036 19.3124L76.2309 19.1426L74.9152 18.2513L74.7878 18.4211C72.8778 21.2649 69.7369 22.9627 66.4262 22.9627C60.781 22.9627 56.197 18.1664 56.197 12.2666C56.197 6.36674 60.781 1.57046 66.4262 1.57046Z" fill="white"/>
</svg>
