<svg width="35" height="35" viewBox="0 0 35 35" fill="none" xmlns="http://www.w3.org/2000/svg">
<circle cx="17.5" cy="17.5" r="17.5" fill="#7294C7"/>
<path d="M26.0798 21.9755C26.0798 21.9028 26.0072 21.9028 26.0072 21.8302C25.7166 21.249 25.0628 20.5226 24.1911 19.7235C23.7552 19.3603 23.5373 19.0697 23.392 18.9244C23.174 18.6338 23.174 18.4159 23.2467 18.1253C23.3193 17.9074 23.6099 17.5441 24.1184 16.8903C24.409 16.5271 24.5543 16.3092 24.7722 16.0912C25.8619 14.6383 26.3704 13.6939 26.2251 13.2581L26.1525 13.1854C26.0798 13.1128 26.0072 13.0401 25.8619 13.0401C25.7166 12.9675 25.4987 12.9675 25.2807 13.0401H22.5202C22.4476 13.0401 22.4476 13.0401 22.3023 13.0401C22.2296 13.0401 22.157 13.0401 22.157 13.0401H22.0844H22.0117L21.9391 13.1128C21.8664 13.1854 21.8664 13.1854 21.8664 13.2581C21.5758 14.0572 21.2126 14.711 20.8494 15.4374C20.6315 15.8007 20.4135 16.1639 20.1956 16.4545C19.9776 16.745 19.8324 16.963 19.6871 17.1083C19.5418 17.2536 19.3965 17.3262 19.3238 17.4715C19.2512 17.5441 19.1059 17.6168 19.1059 17.5441C19.0333 17.5441 18.9606 17.5441 18.9606 17.4715C18.888 17.3988 18.8153 17.3262 18.7427 17.2536C18.67 17.1809 18.67 17.0356 18.5974 16.8903C18.5974 16.745 18.5974 16.5997 18.5974 16.5271C18.5974 16.4545 18.5974 16.2365 18.5974 16.0912C18.5974 15.8733 18.5974 15.728 18.5974 15.6554C18.5974 15.4374 18.5974 15.1469 18.5974 14.8563C18.5974 14.5657 18.5974 14.3478 18.5974 14.2025C18.5974 14.0572 18.5974 13.8392 18.5974 13.6939C18.5974 13.476 18.5974 13.3307 18.5974 13.2581C18.5974 13.1854 18.5248 13.0401 18.5248 12.9675C18.4521 12.8949 18.3795 12.8222 18.3068 12.7496C18.2342 12.6769 18.0889 12.6769 18.0162 12.6043C17.653 12.5316 17.2171 12.459 16.7086 12.459C15.5463 12.459 14.7472 12.5316 14.4566 12.6769C14.3113 12.7496 14.166 12.8222 14.0934 12.9675C13.9481 13.1128 13.9481 13.1854 14.0208 13.1854C14.384 13.2581 14.6746 13.4034 14.8199 13.6213L14.8925 13.7666C14.9651 13.8392 14.9651 13.9845 15.0378 14.2025C15.1104 14.4204 15.1104 14.6383 15.1104 14.9289C15.1104 15.3648 15.1104 15.8007 15.1104 16.0912C15.1104 16.4545 15.0378 16.6724 15.0378 16.8903C15.0378 17.1083 14.9651 17.2536 14.8925 17.3262C14.8199 17.4715 14.8198 17.5441 14.7472 17.5441C14.7472 17.5441 14.7472 17.6168 14.6746 17.6168C14.6019 17.6168 14.5293 17.6894 14.384 17.6894C14.3113 17.6894 14.166 17.6168 14.0934 17.5441C13.9481 17.4715 13.8028 17.3262 13.7302 17.1809C13.5849 17.0356 13.4396 16.8177 13.2943 16.5271C13.149 16.2365 12.9311 15.9459 12.7858 15.5101L12.6405 15.2195C12.5679 15.0742 12.4226 14.7836 12.2773 14.4204C12.132 14.0572 11.9867 13.7666 11.8414 13.4034C11.7688 13.2581 11.6961 13.1854 11.6235 13.1128H11.5508C11.5508 13.1128 11.4782 13.0401 11.4055 13.0401C11.3329 13.0401 11.2602 12.9675 11.1876 12.9675H8.57237C8.28179 12.9675 8.13651 13.0401 8.06386 13.1128L7.99121 13.1854C7.99121 13.1854 7.99121 13.2581 7.99121 13.3307C7.99121 13.4034 7.99122 13.476 8.06386 13.6213C8.42709 14.493 8.86295 15.3648 9.29882 16.2365C9.73469 17.0356 10.1706 17.7621 10.4611 18.2706C10.8244 18.7791 11.115 19.2876 11.4782 19.7235C11.8414 20.1594 12.0593 20.4499 12.132 20.5952C12.2773 20.7405 12.3499 20.8132 12.4226 20.8858L12.6405 21.1037C12.7858 21.249 13.0037 21.467 13.2943 21.6849C13.5849 21.9028 13.9481 22.1208 14.3113 22.3387C14.6746 22.5566 15.1104 22.7019 15.5463 22.8472C16.0548 22.9925 16.4907 23.0652 16.9266 22.9925H18.0162C18.2342 22.9925 18.3795 22.9199 18.5248 22.7746L18.5974 22.7019C18.5974 22.6293 18.67 22.6293 18.67 22.5566C18.67 22.484 18.67 22.4114 18.67 22.2661C18.67 21.9755 18.67 21.7576 18.7427 21.5396C18.8153 21.3217 18.8153 21.1764 18.888 21.0311C18.9606 20.8858 19.0333 20.8132 19.1059 20.7405C19.1786 20.6679 19.2512 20.5952 19.2512 20.5952H19.3238C19.4691 20.5226 19.6871 20.5952 19.8324 20.7405C20.0503 20.8858 20.2682 21.1037 20.4135 21.3217C20.5588 21.5396 20.7768 21.7576 21.0673 22.0481C21.3579 22.3387 21.5758 22.5566 21.7211 22.6293L21.9391 22.7746C22.0844 22.8472 22.2297 22.9199 22.4476 22.9925C22.6655 23.0652 22.8108 23.0652 22.9561 23.0652L25.426 22.9925C25.644 22.9925 25.8619 22.9199 26.0072 22.8472C26.1525 22.7746 26.2251 22.7019 26.2251 22.5566C26.2251 22.484 26.2251 22.3387 26.2251 22.2661C26.0798 22.1208 26.0798 22.0481 26.0798 21.9755Z" fill="white"/>
</svg>
