<svg width="35" height="35" viewBox="0 0 35 35" fill="none" xmlns="http://www.w3.org/2000/svg">
<circle cx="17.5" cy="17.5" r="17.5" fill="#48C95F"/>
<path d="M24.436 10.6797C22.7073 8.95703 20.4024 8 17.9695 8C12.9116 8 8.81402 12.0833 8.81402 17.1237C8.81402 18.7188 9.2622 20.3138 10.0305 21.6536L8.75 26.375L13.6159 25.099C14.9604 25.8008 16.4329 26.1836 17.9695 26.1836C23.0274 26.1836 27.125 22.1003 27.125 17.0599C27.061 14.6992 26.1646 12.4023 24.436 10.6797ZM22.3872 20.3776C22.1951 20.888 21.2988 21.3984 20.8506 21.4622C20.4665 21.526 19.9543 21.526 19.4421 21.3984C19.122 21.2708 18.6738 21.1432 18.1616 20.888C15.8567 19.931 14.3841 17.6341 14.2561 17.4427C14.1281 17.3151 13.2957 16.2305 13.2957 15.082C13.2957 13.9336 13.872 13.4232 14.064 13.168C14.2561 12.9128 14.5122 12.9128 14.7043 12.9128C14.8323 12.9128 15.0244 12.9128 15.1524 12.9128C15.2805 12.9128 15.4726 12.849 15.6646 13.2956C15.8567 13.7422 16.3049 14.8906 16.3689 14.9544C16.4329 15.082 16.4329 15.2096 16.3689 15.3372C16.3049 15.4648 16.2409 15.5924 16.1128 15.7201C15.9848 15.8477 15.8567 16.0391 15.7927 16.1029C15.6646 16.2305 15.5366 16.3581 15.6646 16.5495C15.7927 16.8047 16.2409 17.5065 16.9451 18.1445C17.8415 18.9102 18.5457 19.1654 18.8018 19.293C19.0579 19.4206 19.186 19.3568 19.314 19.2292C19.4421 19.1016 19.8902 18.5911 20.0183 18.3359C20.1463 18.0807 20.3384 18.1445 20.5305 18.2083C20.7226 18.2721 21.875 18.8464 22.0671 18.974C22.3232 19.1016 22.4512 19.1654 22.5152 19.2292C22.5793 19.4206 22.5793 19.8672 22.3872 20.3776Z" fill="white"/>
</svg>
