<svg width="42" height="60" viewBox="0 0 42 60" fill="none" xmlns="http://www.w3.org/2000/svg">
<path d="M14.5339 29.9734C6.65517 29.9734 0 37.6586 0 46.7547L0.000523158 59.2498C0.000523158 59.6647 0.336388 60 0.750736 60H41.1221C41.536 60 41.8724 59.6647 41.8724 59.2498L41.8718 46.75C41.8718 37.6565 35.2177 29.9727 27.3406 29.9727H27.1967V28.5445C27.2124 28.5461 27.225 28.555 27.2417 28.555C27.4907 28.5649 27.7324 28.5691 27.9694 28.5691C33.9104 28.5691 36.0889 25.7201 36.1819 25.5939C36.319 25.4087 36.3635 25.1707 36.3017 24.9483C36.24 24.7265 36.0804 24.545 35.8675 24.4566C33.5059 23.472 32.3335 19.6785 32.106 18.8609C32.8771 17.1412 33.3218 15.2239 33.3218 13.1941C33.3218 5.9191 27.7742 0 20.9538 0C14.1333 0 8.58575 5.91897 8.58575 13.1941C8.58575 15.3114 9.06706 17.3072 9.90149 19.0823C9.7006 19.7953 8.49471 23.7165 6.01181 24.7224C5.79522 24.8103 5.63252 24.9934 5.57026 25.2189C5.508 25.4449 5.55508 25.6855 5.69634 25.8713C5.79155 25.9973 8.02643 28.838 14.1234 28.838C14.3028 28.838 14.4886 28.8328 14.6748 28.8276V29.9722L14.5341 29.9717L14.5339 29.9734ZM28.4719 40.2665C29.1703 40.2665 29.7379 40.8341 29.7379 41.5325C29.7379 42.2309 29.1703 42.7986 28.4719 42.7986C27.7735 42.7986 27.2058 42.2299 27.2058 41.5325C27.2063 40.8352 27.7745 40.2665 28.4719 40.2665ZM27.7222 31.4973V38.8827C26.5629 39.2118 25.7059 40.2686 25.7059 41.5314C25.7059 43.057 26.9463 44.2973 28.4718 44.2973C29.9973 44.2973 31.2377 43.0569 31.2377 41.5314C31.2377 40.2685 30.3813 39.2118 29.2214 38.8827V31.6679C35.3434 32.811 40.3698 39.3594 40.3698 46.7496L40.3709 58.5007H1.49948V46.7559C1.49948 39.451 6.40729 32.9679 12.4314 31.7103V38.8091C8.95287 39.1847 6.23559 42.1359 6.23559 45.7122V49.7441C6.23559 50.1589 6.57146 50.4943 6.98581 50.4943C7.39962 50.4943 7.73602 50.1589 7.73602 49.7441V45.7122C7.73602 42.7092 10.1786 40.2666 13.1816 40.2666C16.1845 40.2666 18.6266 42.7092 18.6266 45.7122V49.7441C18.6266 50.1589 18.9624 50.4943 19.3768 50.4943C19.7906 50.4943 20.127 50.1589 20.127 49.7441V45.7122C20.127 42.1364 17.4097 39.1842 13.9317 38.8091V31.5116C14.1326 31.4995 14.3314 31.4734 14.5339 31.4734H15.463L15.6016 31.5629C17.2496 32.6249 19.0937 33.1559 20.9379 33.1559C22.7992 33.1559 24.6607 32.6145 26.3191 31.5337L26.4112 31.4735H27.3403C27.469 31.4735 27.5945 31.4931 27.7222 31.4973ZM10.2231 14.9665C12.3209 14.4627 19.6132 12.4924 25.5632 8.25637C26.4432 9.56635 28.5955 12.3354 31.7967 13.7276C31.5356 19.9281 26.779 24.8898 20.9537 24.8898C15.5217 24.8898 11.0203 20.5752 10.2231 14.9665ZM20.9525 26.3896C22.6323 26.3896 24.2343 26.0276 25.6965 25.3773V30.1501L25.4993 30.2783C22.7024 32.1031 19.2208 32.1135 16.4146 30.3024L16.1729 30.147V25.3632C17.6451 26.0229 19.259 26.3896 20.9525 26.3896ZM34.3317 25.3077C33.3643 26.0532 31.2215 27.2031 27.2973 27.0582C27.2623 27.0561 27.2304 27.0702 27.1959 27.0734V24.5658C28.7564 23.5865 30.102 22.2602 31.1289 20.6761C31.6845 22.1148 32.7052 24.1568 34.3317 25.3077ZM31.7676 12.0535C29.2251 10.7184 27.4693 8.40234 26.7673 7.35234C27.5494 6.73135 28.2965 6.06589 28.9954 5.35654C30.521 7.16765 31.5348 9.48636 31.7676 12.0535ZM20.9524 1.50087C23.6215 1.50087 26.0652 2.54562 27.959 4.26998C22.3046 10.0331 12.8277 12.7588 10.0956 13.4482C10.094 13.363 10.0835 13.2803 10.0835 13.1945C10.0835 6.74651 14.9601 1.50087 20.9524 1.50087ZM7.57102 25.5705C9.27807 24.3892 10.3328 22.2788 10.8904 20.8396C11.8939 22.3389 13.1834 23.6003 14.6734 24.5425V27.3267C10.7826 27.4298 8.57602 26.3081 7.57102 25.5705Z" fill="#43464F"/>
</svg>
