<svg width="61" height="60" viewBox="0 0 61 60" fill="none" xmlns="http://www.w3.org/2000/svg">
<path d="M58.454 38.8588L54.2878 35.118L57.8919 31.5139C59.2539 30.1524 60.0038 28.3419 60.0038 26.4158C60.0038 24.4897 59.2535 22.6791 57.8919 21.3176L38.683 2.10876C35.8716 -0.703187 31.2972 -0.702652 28.4869 2.10876L24.3961 6.20009C11.9264 -0.924612 7.59569 2.56393 7.3519 2.77692C7.19022 2.91767 7.09708 3.12069 7.09498 3.33471C7.09288 3.54873 7.18236 3.75384 7.3409 3.89773L17.4931 13.1029L2.10856 28.4874C-0.702852 31.2983 -0.702852 35.8721 2.10856 38.683L21.3174 57.8918C22.7229 59.2973 24.5694 60 26.4156 60C28.2617 60 30.1081 59.2973 31.5137 57.8918L47.4689 41.9367L51.9887 45.9951C52.8819 46.8051 54.02 47.2435 55.2172 47.2435C55.2973 47.2435 55.3779 47.2415 55.4585 47.2373C56.743 47.1745 57.9262 46.6151 58.79 45.6628C59.6539 44.7099 60.095 43.4777 60.0322 42.1937C59.9684 40.9085 59.409 39.7249 58.4536 38.8589L58.454 38.8588ZM29.5482 3.16967C31.7746 0.944303 35.3966 0.944303 37.623 3.16967L56.8306 22.3786C57.909 23.457 58.5029 24.8907 58.5029 26.4155C58.5029 27.9403 57.909 29.3745 56.8306 30.4524L53.1694 34.1142L44.722 26.5291C44.4143 26.2533 43.9424 26.2779 43.6656 26.5835L43.0732 27.2365L40.4831 24.8882L43.418 21.6467C43.6959 21.3395 43.6729 20.8655 43.3662 20.5876C36.2709 14.1537 30.4586 9.84309 25.7326 6.986L29.5482 3.16967ZM41.8022 21.1957L38.8679 24.4362C38.59 24.7434 38.613 25.2174 38.9197 25.4953L42.0654 28.3475L39.5727 31.0967L9.18005 3.53847C11.7869 2.75515 20.8439 2.34231 41.803 21.1962L41.8022 21.1957ZM30.4528 56.8313C28.2264 59.0577 24.6049 59.0577 22.3785 56.8313L3.16961 37.6224C2.09118 36.544 1.49788 35.1103 1.49788 33.5855C1.49788 32.0607 2.09177 30.6265 3.16961 29.5485L18.6064 14.1104L38.5654 32.2075L38.2054 32.6046C38.0714 32.7527 38.0019 32.9479 38.0118 33.1473C38.0223 33.3466 38.1112 33.5334 38.2598 33.6669L46.3514 40.9322L30.4528 56.8313ZM57.6788 44.6542C57.0838 45.3103 56.2692 45.6949 55.3854 45.7384C54.5047 45.7844 53.6523 45.4778 52.994 44.8807L39.8238 33.0547L44.2761 28.1434L57.4496 39.9722C58.1057 40.5671 58.4909 41.3818 58.5343 42.2656C58.5772 43.1504 58.2737 43.9987 57.6788 44.6542V44.6542Z" fill="#43464F"/>
<path d="M29.1357 34.4276C28.7903 33.2953 27.9986 32.3555 26.9611 31.8134C27.0453 31.2378 27.0019 30.6513 26.8297 30.0866C26.4457 28.8277 25.4708 27.8591 24.2481 27.4662C24.281 26.9869 24.2266 26.505 24.0859 26.0419C23.5673 24.3434 22.0117 23.2289 20.2965 23.2289H20.2808C19.6874 21.4158 17.744 20.3997 15.9079 20.9575C14.0748 21.5168 13.0284 23.4455 13.548 25.2827C12.1154 26.2381 11.4413 28.037 11.9609 29.7402C12.1022 30.2028 12.3262 30.6334 12.6207 31.0123C11.8254 32.0211 11.5575 33.3685 11.9416 34.6279C12.1137 35.1925 12.4052 35.7032 12.7966 36.1338C12.2382 37.1631 12.1059 38.3849 12.4517 39.5161C12.8426 40.7981 13.7698 41.8038 14.9895 42.3004C14.9952 42.709 15.0591 43.1135 15.1794 43.508C15.9617 46.0715 18.5544 46.8176 20.6386 47.4179C22.0807 47.8328 23.4427 48.2252 23.6923 49.0447C23.6923 49.0452 23.6928 49.0452 23.6928 49.0458L24.7173 52.405C24.8157 52.7279 25.1134 52.9367 25.4347 52.9367C25.5075 52.9367 25.5807 52.9262 25.654 52.9037C26.0501 52.7828 26.2735 52.3637 26.1526 51.9671L25.1271 48.6057C24.878 47.7868 25.7885 46.7015 26.7534 45.5525C28.1473 43.8917 29.8824 41.8248 29.1006 39.2614C28.9803 38.8663 28.8071 38.4958 28.5842 38.1531C29.3183 37.0616 29.5271 35.7095 29.1357 34.4276L29.1357 34.4276ZM27.0756 38.6414C27.3472 38.9522 27.546 39.3086 27.6653 39.6994C28.2095 41.4842 26.8851 43.0623 25.6036 44.5887C25.1699 45.1057 24.7397 45.63 24.3818 46.1643L22.8943 41.2881L24.4871 38.2977C24.6818 37.932 24.5431 37.4778 24.1774 37.2826C23.8116 37.089 23.3579 37.2272 23.1622 37.5924L22.2748 39.2589L21.245 35.8829L22.8379 32.8925C23.0325 32.5268 22.8939 32.0726 22.5281 31.8774C22.1623 31.6833 21.7082 31.8219 21.513 32.1872L20.6256 33.8533L19.5524 30.3354C19.4315 29.9393 19.0134 29.7159 18.6157 29.8367C18.2196 29.9576 17.9962 30.3767 18.1171 30.7734L19.1903 34.2907L17.5242 33.4033C17.1579 33.2081 16.7042 33.3478 16.509 33.713C16.3144 34.0788 16.4531 34.533 16.8188 34.7281L19.8092 36.3204L20.8389 39.6965L19.1728 38.809C18.8071 38.6154 18.3534 38.7536 18.1577 39.1188C17.9631 39.4846 18.1017 39.9387 18.4675 40.1339L21.4584 41.7267L22.946 46.6024C22.3505 46.3585 21.7006 46.1634 21.0523 45.9771C19.1377 45.4256 17.1577 44.8557 16.6134 43.071C16.4941 42.6806 16.4601 42.274 16.5119 41.8638C16.5596 41.4881 16.3194 41.1354 15.9521 41.0428C14.9563 40.7901 14.184 40.0565 13.8862 39.0796C13.6147 38.189 13.7926 37.2131 14.3619 36.4691C14.613 36.1416 14.5518 35.6727 14.2258 35.42C13.8192 35.105 13.5257 34.6801 13.3766 34.1909C13.0888 33.249 13.3886 32.2271 14.14 31.5882C14.3069 31.4459 14.4032 31.2381 14.4043 31.0194C14.4048 30.8002 14.3101 30.5919 14.1442 30.4491C13.7894 30.1429 13.531 29.7468 13.396 29.3031C13.0271 28.0949 13.6241 26.8093 14.7846 26.3128C14.9772 26.2301 15.1269 26.071 15.1964 25.8732C15.2666 25.676 15.2503 25.4578 15.1525 25.2725C15.0928 25.1595 15.0416 25.0397 15.0028 24.9141C14.6779 23.8488 15.2807 22.7175 16.3455 22.3926C16.5411 22.3329 16.7389 22.3047 16.9336 22.3047C17.7985 22.3047 18.6017 22.8656 18.8671 23.7353C18.9037 23.8556 18.9293 23.9833 18.9435 24.1151C18.966 24.3239 19.0738 24.5139 19.2422 24.6384C19.4107 24.7635 19.6237 24.8126 19.8299 24.7734C21.07 24.5379 22.2824 25.2721 22.6508 26.4797C22.7858 26.9234 22.7926 27.3964 22.6691 27.848C22.6115 28.0594 22.6487 28.2849 22.7722 28.4665C22.8946 28.6476 23.0908 28.7663 23.3085 28.7909C24.2886 28.9019 25.1075 29.5826 25.3947 30.5244C25.5438 31.0137 25.537 31.5301 25.3759 32.0183C25.2466 32.4102 25.458 32.833 25.8489 32.9648C26.7368 33.2641 27.4291 33.9742 27.7006 34.8654C27.9989 35.8412 27.7671 36.8815 27.0816 37.647C26.8284 37.9296 26.8263 38.3566 27.0754 38.6417L27.0756 38.6414Z" fill="#F2D5B3"/>
<path d="M7.37096 17.1718C9.5927 17.1718 11.4005 15.364 11.4005 13.1422C11.4005 10.9205 9.5927 9.11267 7.37096 9.11267C5.14921 9.11267 3.34138 10.9205 3.34138 13.1422C3.3419 15.3645 5.14921 17.1718 7.37096 17.1718ZM7.37096 10.6133C8.76541 10.6133 9.89986 11.7483 9.89986 13.1422C9.89986 14.5367 8.76491 15.6712 7.37096 15.6712C5.9765 15.6712 4.84206 14.5362 4.84206 13.1422C4.84206 11.7483 5.977 10.6133 7.37096 10.6133Z" fill="#43464F"/>
<path d="M52.1514 51.4518C52.1514 49.2301 50.3436 47.4222 48.1218 47.4222C45.9001 47.4222 44.0922 49.2301 44.0922 51.4518C44.0922 53.6736 45.9001 55.4814 48.1218 55.4814C50.3436 55.4814 52.1514 53.6736 52.1514 51.4518ZM45.5929 51.4518C45.5929 50.0574 46.7279 48.9229 48.1218 48.9229C49.5163 48.9229 50.6507 50.0579 50.6507 51.4518C50.6507 52.8463 49.5158 53.9807 48.1218 53.9807C46.7274 53.9807 45.5929 52.8463 45.5929 51.4518Z" fill="#43464F"/>
<path d="M34.7362 33.5073C32.5145 33.5073 30.7066 35.3152 30.7066 37.5369C30.7066 38.9016 31.4036 40.1627 32.5218 40.9003C32.267 41.4288 32.1116 42.0138 32.1116 42.6386C32.1116 44.8604 33.9194 46.6682 36.1412 46.6682C38.3629 46.6682 40.1708 44.8604 40.1708 42.6386C40.1708 41.2374 39.4503 40.0035 38.3613 39.2815C38.623 38.7405 38.7653 38.1502 38.7653 37.537C38.7658 35.3153 36.958 33.5075 34.7362 33.5075L34.7362 33.5073ZM34.7362 35.0075C36.1307 35.0075 37.2651 36.1424 37.2651 37.5364C37.2651 37.9471 37.1678 38.3427 36.982 38.7001C36.7105 38.642 36.43 38.609 36.1412 38.609C35.0868 38.609 34.134 39.025 33.4155 39.6896C32.674 39.2333 32.2073 38.4201 32.2073 37.5364C32.2073 36.1425 33.3417 35.0075 34.7362 35.0075L34.7362 35.0075ZM36.1411 45.1681C34.7467 45.1681 33.6122 44.0331 33.6122 42.6392C33.6122 41.2447 34.7472 40.1103 36.1411 40.1103C37.5356 40.1103 38.67 41.2452 38.67 42.6392C38.6706 44.0331 37.5356 45.1681 36.1411 45.1681Z" fill="#43464F"/>
<path d="M51.4013 28.8793C53.6231 28.8793 55.4309 27.0715 55.4309 24.8498C55.4309 22.628 53.6231 20.8202 51.4013 20.8202C49.1796 20.8202 47.3718 22.628 47.3718 24.8498C47.3723 27.0721 49.1796 28.8793 51.4013 28.8793ZM51.4013 22.3209C52.7958 22.3209 53.9302 23.4558 53.9302 24.8498C53.9302 26.2442 52.7953 27.3787 51.4013 27.3787C50.0069 27.3787 48.8724 26.2437 48.8724 24.8498C48.8724 23.4558 50.0069 22.3209 51.4013 22.3209Z" fill="#43464F"/>
</svg>
