<svg width="51" height="50" viewBox="0 0 51 50" fill="none" xmlns="http://www.w3.org/2000/svg">
<path d="M50.4833 6.84928C50.4715 6.51752 50.2025 6.2529 49.8712 6.24637C49.403 6.23896 40.246 6.1073 33.9724 9.05606C27.3251 2.37043 18.7588 5.2799 17.0055 5.97919C15.6315 4.09334 13.2943 3.18691 11.0135 3.64515C10.8888 3.28114 10.7271 2.93456 10.53 2.6089C8.98157 0.0542222 5.64568 -0.764825 3.09021 0.782313C1.85299 1.53214 0.981496 2.71883 0.636757 4.12423C0.291483 5.5293 0.514686 6.98493 1.26408 8.22215C1.46113 8.54824 1.69393 8.85209 1.95855 9.13109C0.388755 11.0724 0.181177 13.7996 1.49906 15.9741C2.25455 17.2218 3.44908 18.1469 4.83752 18.5789C4.70499 19.3021 4.70936 20.0379 4.84362 20.7555H1.12114C0.775868 20.7555 0.495992 21.0354 0.495992 21.3807V22.2356C0.495992 34.2674 4.38945 40.6499 13.463 43.4913L13.4635 49.3748C13.4635 49.7201 13.7429 50 14.0886 50H36.9034C37.2487 50 37.5285 49.7201 37.5285 49.3748V43.4917C46.6023 40.6498 50.4945 34.2681 50.4945 22.236V21.3811C50.4945 21.0359 50.215 20.756 49.8693 20.756H48.5431C50.7299 14.6035 50.4953 7.17404 50.4836 6.84928H50.4833ZM48.426 16.369L41.4753 16.1389L49.2364 8.37772C49.2068 10.1233 49.052 13.1888 48.426 16.369L48.426 16.369ZM34.0851 20.756L33.7473 10.5641C35.3411 9.70786 37.22 9.09147 39.1211 8.64584L39.3801 16.4658L35.09 20.7559L34.0851 20.756ZM28.594 20.756C28.0504 17.7066 29.0343 14.5861 31.2658 12.354C31.6408 11.9791 32.0645 11.6356 32.5223 11.3165L32.8353 20.756L28.594 20.756ZM40.3624 8.37822C43.5174 7.757 46.5737 7.57041 48.3298 7.51679L40.5904 15.2557L40.3624 8.37822ZM32.8071 9.65819C31.8973 10.1791 31.0738 10.7786 30.382 11.4704C27.9123 13.9396 26.7933 17.3743 27.3243 20.756L20.2319 20.7564C21.1426 19.9565 21.7904 18.9024 22.0855 17.7004C22.4665 16.1497 22.2197 14.5438 21.3928 13.178C20.636 11.9303 19.4415 11.0052 18.0539 10.5732C18.2692 9.38788 18.1175 8.16505 17.6305 7.0699C19.4637 6.34056 26.8308 3.94371 32.8073 9.65806L32.8071 9.65819ZM6.18666 18.3034C6.23679 18.1343 6.21281 17.9525 6.12214 17.8017C6.03059 17.6508 5.88062 17.5458 5.70711 17.5122C4.39802 17.2563 3.25365 16.4598 2.56741 15.3277C1.43655 13.4609 1.72647 11.0802 3.27234 9.53744C3.39702 9.4132 3.46328 9.24275 3.45543 9.06706C3.44758 8.89182 3.3665 8.72746 3.23136 8.61498C2.86996 8.31375 2.56741 7.96456 2.33244 7.57569C1.14187 5.61049 1.77225 3.0432 3.7375 1.85263C5.70315 0.662063 8.27044 1.29245 9.45967 3.2577C9.69508 3.64613 9.86553 4.07597 9.96449 4.53499C10.0015 4.70675 10.1097 4.85497 10.2609 4.94347C10.4122 5.03153 10.5949 5.05246 10.7627 4.99884C12.8465 4.34404 15.0912 5.18803 16.2216 7.05521C16.9082 8.1882 17.0839 9.57106 16.7042 10.8497C16.6541 11.0184 16.678 11.2006 16.7687 11.3515C16.8603 11.5023 17.0102 11.6074 17.1837 11.6409C18.4925 11.8968 19.6367 12.6933 20.3234 13.8254C20.9778 14.9053 21.1722 16.1756 20.8714 17.4024C20.5706 18.6287 19.8095 19.6645 18.7297 20.3184C18.5004 20.4575 18.2602 20.5765 18.0169 20.6724C17.9842 20.6851 17.9005 20.7138 17.8334 20.7369L17.7784 20.7561H15.9205L9.09224 9.48655C8.91349 9.19098 8.52943 9.09812 8.23342 9.27556C7.93873 9.4543 7.84412 9.8388 8.02287 10.1339L14.4583 20.7562H6.12865C5.93508 19.9523 5.94686 19.111 6.18663 18.3035L6.18666 18.3034ZM14.712 48.7507V43.6662H36.2769L36.2773 48.7507H14.712ZM49.2428 22.2363C49.2428 33.9311 45.6393 39.7857 36.8115 42.4162L14.1775 42.4157C5.34875 39.7848 1.74501 33.9305 1.74501 22.2358V22.0057H49.2428V22.2363ZM36.8572 20.7562L40.2636 17.3498L48.1556 17.6114C47.9023 18.6812 47.5906 19.7432 47.2065 20.7563L36.8572 20.7562Z" fill="#43464F"/>
</svg>
