<svg width="46" height="60" viewBox="0 0 46 60" fill="none" xmlns="http://www.w3.org/2000/svg">
<path d="M8.44428 59.9875C8.25431 59.9866 8.0748 59.8992 7.95679 59.7502L0.233598 50.0457C0.0833827 49.8486 0.0637154 49.5817 0.183385 49.3645L3.80118 43.3218C7.39433 36.1485 13.0809 34.2864 13.8433 34.068L22.6917 29.2814H22.7729H22.7725C23.647 29.0295 24.5889 29.2115 25.3069 29.7705C26.0246 30.33 26.4313 31.1987 26.4008 32.1083C26.3706 33.0176 25.907 33.8574 25.1533 34.3675L21.8288 37.492C21.7903 37.5343 21.7435 37.5682 21.6916 37.592C21.6175 37.6284 21.5828 37.7142 21.6104 37.792C21.8498 38.4096 22.3109 38.9159 22.9038 39.2118C23.4963 39.5076 24.1783 39.5717 24.8161 39.3917L29.8152 37.9544L40.8808 28.1876C41.4377 27.6925 42.1583 27.4218 42.9036 27.4268C43.6484 27.4323 44.3652 27.7135 44.9145 28.2164C45.4644 28.7194 45.8083 29.4081 45.8799 30.1496C45.9648 31.0087 45.6757 31.8623 45.0861 32.4929L36.7377 41.5848C36.6624 41.6701 36.5787 41.7475 36.4879 41.8162L26.765 49.3644C26.2014 49.8009 25.5092 50.0381 24.7967 50.0394H15.8232C15.3089 50.0386 14.8043 50.1783 14.3636 50.4436C13.923 50.7093 13.5636 51.0901 13.3238 51.5453L8.99968 59.6685C8.90177 59.8551 8.71598 59.9798 8.50634 59.9999L8.44428 59.9875ZM1.47725 49.6022L8.35097 58.2254L12.2253 50.9521L12.2249 50.9517C12.5722 50.2969 13.0915 49.7491 13.7267 49.3671C14.3619 48.985 15.0892 48.7834 15.8303 48.7838H24.7974C25.2335 48.7804 25.6565 48.6357 26.0034 48.3712L35.7137 40.8288C35.7493 40.8071 35.7806 40.7794 35.8074 40.7476L44.1745 31.6311C44.5126 31.2629 44.6783 30.7683 44.6294 30.2708C44.5804 29.7733 44.3218 29.3201 43.9184 29.0251C43.5937 28.7891 43.1987 28.6707 42.7978 28.6887C42.397 28.7067 42.0141 28.8607 41.7124 29.1251L30.5397 39.0107C30.469 39.0727 30.3861 39.1195 30.2962 39.148L25.1661 40.6167C24.2275 40.8829 23.2232 40.7891 22.3504 40.3531C21.4775 39.9175 20.7993 39.171 20.4481 38.2609C20.2042 37.6266 20.4486 36.9085 21.0293 36.5549L24.3597 33.4304C24.4016 33.389 24.4501 33.3551 24.5037 33.3304C24.9757 33.0773 25.2891 32.6032 25.3368 32.0693C25.3849 31.5354 25.1615 31.0131 24.7418 30.6796C24.3225 30.3461 23.763 30.2457 23.2538 30.4126L14.3807 35.2054V35.205C14.3372 35.2293 14.2912 35.2481 14.2431 35.2615C14.187 35.2615 8.43175 36.8863 4.90138 43.9036L1.47725 49.6022Z" fill="#43464F"/>
<path d="M23.8407 40.7668C23.6859 40.7664 23.5365 40.7086 23.4219 40.6045C23.1691 40.371 23.1524 39.9772 23.3846 39.7232L31.4705 30.8565C32.2409 30.0251 33.3041 29.525 34.4361 29.4618C35.5679 29.399 36.6797 29.7781 37.538 30.5188L38.3129 31.2C38.5711 31.4281 38.5962 31.8222 38.369 32.0812C38.1409 32.3398 37.7468 32.3649 37.4877 32.1373L36.7132 31.4561C36.1015 30.9314 35.311 30.6631 34.5063 30.7071C33.7017 30.7514 32.9456 31.105 32.3953 31.6938L24.3094 40.5605C24.1897 40.6931 24.0194 40.768 23.8407 40.7668L23.8407 40.7668Z" fill="#43464F"/>
<path d="M23.8793 23.7454C23.7274 23.7449 23.5805 23.6893 23.4667 23.5889C23.4667 23.5889 21.6419 21.9766 19.9049 20.246C19.7083 19.9966 19.73 19.6392 19.9552 19.4158C20.1807 19.1919 20.538 19.1727 20.7862 19.371C22.0361 20.5832 23.2855 21.7268 23.9107 22.2955C25.8916 20.5335 34.4148 12.6789 34.4148 7.55461H34.4144C34.4144 5.87914 33.7478 4.27275 32.5611 3.08982C31.3749 1.90689 29.7663 1.24488 28.091 1.24991C26.7039 1.24447 25.3552 1.70434 24.2601 2.55582C24.0358 2.72864 23.7228 2.72864 23.4981 2.55582C22.4014 1.70764 21.0541 1.2482 19.6673 1.24991C16.7177 1.24991 13.9246 3.86184 13.5748 6.94863C13.5371 7.29385 13.2266 7.54282 12.8814 7.50474C12.5362 7.46666 12.2872 7.15618 12.3253 6.81096C12.75 3.12451 16.1118 7.28532e-06 19.6673 7.28532e-06C21.1687 -0.00208489 22.6357 0.446487 23.8793 1.28717C25.1224 0.446519 26.5895 -0.00202801 28.0908 7.28532e-06C30.0923 0.00168105 32.0112 0.797554 33.4264 2.21269C34.8416 3.62787 35.6375 5.54683 35.6391 7.54827C35.6391 13.8969 24.747 23.2072 24.2789 23.6014C24.1668 23.6947 24.0249 23.7453 23.8793 23.7453L23.8793 23.7454Z" fill="#F2D5B3"/>
<path d="M17.3482 23.2945C17.2 23.2965 17.0561 23.2455 16.9423 23.1509C16.6113 22.8697 8.81909 16.1898 8.81909 11.5969H8.81867C8.817 10.2625 9.29694 8.97201 10.1702 7.96314C11.0435 6.95386 12.2516 6.29399 13.5726 6.10406C14.8936 5.91409 16.2385 6.207 17.3607 6.92922C18.4821 6.20616 19.8269 5.91283 21.1479 6.10281C22.4685 6.29236 23.6762 6.95308 24.5486 7.96232C25.4215 8.97202 25.8997 10.2625 25.8964 11.5969C25.8964 16.1897 18.0979 22.8446 17.7732 23.151C17.654 23.2497 17.5029 23.3012 17.3481 23.2945L17.3482 23.2945ZM14.3551 7.29811C13.2152 7.29979 12.1231 7.75338 11.3173 8.55925C10.5113 9.36516 10.0577 10.4577 10.0561 11.5971C10.0561 14.7216 14.9861 19.758 17.3483 21.8451C19.7041 19.758 24.6342 14.7404 24.6342 11.5971C24.6342 10.4581 24.1823 9.36555 23.3777 8.55968C22.5726 7.75335 21.4809 7.29972 20.3414 7.29811C19.3953 7.29519 18.4756 7.60986 17.7295 8.19191C17.5048 8.36473 17.1918 8.36473 16.9671 8.19191C16.2206 7.61069 15.3013 7.29603 14.3552 7.29811H14.3551Z" fill="#43464F"/>
</svg>
