<svg width="49" height="49" viewBox="0 0 49 49" fill="none" xmlns="http://www.w3.org/2000/svg">
<path d="M1.17909 29.9154C1.44218 30.0985 1.72023 30.2591 2.01029 30.3954C2.35589 30.5722 2.93509 30.8682 2.97589 31.0754C3.02623 31.3489 2.99334 31.6312 2.88149 31.8858C2.76229 32.1418 2.63749 32.3618 2.52949 32.5514C2.23669 33.069 1.74629 33.9362 2.48549 34.5402C2.65829 34.7002 2.95669 34.9314 3.22869 35.1402C3.02846 35.4904 2.93789 35.8925 2.96869 36.2946C3.01098 36.6112 3.18279 36.896 3.44309 37.081C3.6207 37.2066 3.81029 37.3154 3.99749 37.4218C4.47029 37.6914 4.6551 37.817 4.7175 38.0674C4.76194 38.3894 4.73462 38.7173 4.6375 39.0274C4.5903 39.241 4.5447 39.4554 4.5175 39.6674C4.43805 40.3965 4.52813 41.1341 4.7807 41.8226C5.14046 43.0934 6.28976 43.9789 7.6103 44.0026C7.83077 44.002 8.05059 43.9787 8.2663 43.933C10.5517 43.3913 12.8038 42.7174 15.0111 41.9146C16.8135 42.9722 17.9519 46.1882 18.2487 47.3954C18.3373 47.7523 18.6578 48.0028 19.0255 48.0026L39.1055 47.9466C39.36 47.9462 39.599 47.8246 39.7494 47.6193C39.8997 47.414 39.9435 47.1494 39.8671 46.9066C39.6693 46.3646 39.3965 45.853 39.0567 45.3866C38.8649 45.1101 38.6919 44.8209 38.5391 44.521C38.177 43.7883 37.875 43.0274 37.6359 42.2458C37.1852 40.7166 36.871 39.1505 36.6967 37.5658C36.6705 37.275 36.4879 37.0216 36.2203 36.9046C35.9528 36.7877 35.6427 36.8258 35.4115 37.0041C35.1802 37.1824 35.0645 37.4725 35.1095 37.761C35.2945 39.4407 35.6284 41.1005 36.1071 42.721C36.3703 43.581 36.7024 44.4184 37.0999 45.225C37.2824 45.5873 37.4896 45.9367 37.7199 46.2706L37.7735 46.3506L19.6303 46.4026C19.0992 44.5049 18.1353 42.7562 16.8143 41.2938L17.5343 41.0418C18.0703 40.8546 18.4743 40.7138 18.6815 40.6474C22.1087 39.5634 23.8223 38.0026 23.7759 36.0074C23.7766 35.7943 23.6898 35.5901 23.536 35.4426C23.3821 35.2951 23.1745 35.217 22.9615 35.2266C22.5199 35.2371 22.1704 35.6035 22.1807 36.045C22.1999 36.8682 21.5255 38.069 18.1999 39.121C17.9831 39.1906 17.5655 39.3362 17.0111 39.5298C16.4167 39.7378 15.6607 40.0018 14.8271 40.285H14.8215C12.5701 41.1103 10.273 41.8048 7.9415 42.365C7.19548 42.5088 6.46894 42.0382 6.2951 41.2986C6.12419 40.8435 6.05987 40.3553 6.1071 39.8714C6.1279 39.7034 6.1663 39.537 6.2031 39.3698C6.36611 38.8165 6.39002 38.2315 6.2727 37.6666C6.03923 36.9328 5.49903 36.3363 4.7919 36.0314L4.6255 35.9362C4.71188 35.7618 4.81503 35.5963 4.9335 35.4418C5.0677 35.2718 5.12721 35.0546 5.09841 34.8399C5.06961 34.6252 4.95497 34.4313 4.7807 34.3026C4.5887 34.1618 4.1359 33.8226 3.8047 33.5554C3.8431 33.4858 3.88469 33.409 3.9247 33.3394C4.05029 33.1194 4.1935 32.8634 4.3335 32.5674C4.58665 32.0067 4.66122 31.3816 4.5471 30.777C4.3551 29.801 3.4207 29.3226 2.73829 28.9738C2.50882 28.8652 2.28885 28.7376 2.08069 28.5922C1.90915 28.477 1.74849 28.3463 1.60069 28.2018C1.60069 28.081 1.73029 27.7882 2.33989 27.045C3.77257 25.2014 5.00033 23.2072 6.0015 21.0978C6.19038 20.7673 6.2966 20.3959 6.3111 20.0154C6.22846 19.2113 5.80233 18.4821 5.1423 18.0154C4.8183 17.7186 4.5135 17.4386 4.4783 17.1802C4.48364 16.9907 4.52604 16.8039 4.6031 16.6306C4.7335 16.2874 4.8839 15.9514 5.0351 15.6146C5.36314 14.9382 5.62515 14.2318 5.8175 13.505L5.8975 13.1642C6.06715 12.3644 6.28569 11.5757 6.5519 10.8026C7.18253 9.06205 8.15894 7.46709 9.4223 6.11384C10.9527 4.49464 13.3615 3.34904 16.5935 2.70664C19.0657 2.16392 21.5742 1.80243 24.0991 1.62504C25.3583 1.55686 26.6213 1.6285 27.8647 1.83864C28.2945 1.90307 28.6972 1.61253 28.7715 1.18431C28.8458 0.756094 28.5647 0.346856 28.1383 0.26264C26.7772 0.0313196 25.3945 -0.0475674 24.0159 0.0274398C21.4128 0.207991 18.8264 0.579118 16.2775 1.13784C12.6703 1.85784 10.0487 3.12264 8.2591 5.01384C6.84742 6.52438 5.75593 8.30489 5.0503 10.2482C4.76219 11.0845 4.52548 11.9375 4.3415 12.8026L4.2615 13.1402C4.09075 13.7677 3.86176 14.3778 3.57749 14.9626C3.41749 15.3274 3.2511 15.6922 3.10789 16.0698C2.92371 16.4904 2.85071 16.9513 2.8959 17.4082C3.05733 18.1246 3.47141 18.7587 4.0623 19.1946C4.4535 19.5538 4.7103 19.8066 4.7135 20.0266C4.68454 20.1485 4.63848 20.2657 4.57669 20.3746C3.61829 22.3938 2.4434 24.3028 1.07269 26.0682C0.494294 26.773 -0.111306 27.5946 0.017494 28.4162C0.186941 29.052 0.605756 29.5926 1.17909 29.9154Z" fill="#43464F"/>
<path d="M8.9351 14.237L9.0151 13.881C9.15532 13.2158 9.33347 12.5593 9.5487 11.9146C10.0305 10.579 10.7772 9.35446 11.7439 8.31455C12.7807 7.33695 14.0498 6.64004 15.4311 6.28975C15.71 6.21116 15.9246 5.98791 15.9921 5.70613C16.0596 5.42435 15.9695 5.1281 15.7565 4.93166C15.5435 4.73522 15.2409 4.66931 14.9655 4.75935C13.317 5.18775 11.8068 6.03392 10.5807 7.21615C9.46661 8.41378 8.60593 9.82412 8.0503 11.3626C7.81027 12.0727 7.61233 12.7963 7.4575 13.5298L7.3775 13.8762C7.27766 14.3062 7.54512 14.7359 7.9751 14.8362C8.03462 14.8501 8.09556 14.8571 8.1567 14.857C8.52877 14.8564 8.85138 14.5995 8.9351 14.237Z" fill="#43464F"/>
<path d="M7.20149 17.6027C7.64332 17.6027 8.00149 17.2445 8.00149 16.8027C8.00149 16.3609 7.64332 16.0027 7.20149 16.0027C6.75966 16.0027 6.40149 16.3609 6.40149 16.8027C6.40149 17.2445 6.75966 17.6027 7.20149 17.6027Z" fill="#43464F"/>
<path d="M21.6015 16.1705C21.5467 18.8979 22.5105 21.5477 24.3047 23.6025C24.8694 24.1893 25.4852 24.7248 26.1447 25.2025C27.3151 26.1073 28.4239 26.9721 28.7183 28.1753C27.8043 28.5371 27.2033 29.4196 27.2015 30.4025V32.0025C27.2057 33.016 27.846 33.9175 28.8015 34.2553V34.4025C28.8015 36.1699 30.2342 37.6025 32.0015 37.6025C33.7688 37.6025 35.2015 36.1699 35.2015 34.4025V34.2553C36.157 33.9175 36.7973 33.016 36.8015 32.0025V30.4025C36.7992 29.4188 36.1967 28.536 35.2815 28.1753C35.5751 26.9753 36.6847 26.1073 37.8551 25.2025C38.5144 24.7245 39.1302 24.1891 39.6951 23.6025C41.49 21.5479 42.4549 18.8982 42.4015 16.1705C42.3792 10.4084 37.7625 5.71718 32.0015 5.60254C26.2405 5.71718 21.6238 10.4084 21.6015 16.1705ZM29.6015 17.6025H28.8015C28.3597 17.6025 28.0015 17.2444 28.0015 16.8025C28.0015 16.3607 28.3597 16.0025 28.8015 16.0025C29.2433 16.0025 29.6015 16.3607 29.6015 16.8025V17.6025ZM32.8015 28.0025H31.2015V19.2025H32.8015V28.0025ZM32.0015 36.0025C31.1178 36.0025 30.4015 35.2862 30.4015 34.4025H33.6015C33.6015 35.2862 32.8851 36.0025 32.0015 36.0025ZM35.2015 32.0025C35.2015 32.4444 34.8433 32.8025 34.4015 32.8025H29.6015C29.1597 32.8025 28.8015 32.4444 28.8015 32.0025V30.4025C28.8015 29.9607 29.1597 29.6025 29.6015 29.6025H34.4015C34.8433 29.6025 35.2015 29.9607 35.2015 30.4025V32.0025ZM40.8015 16.1953C40.8513 18.5182 40.0348 20.7765 38.5111 22.5305C38.0093 23.045 37.4641 23.5153 36.8815 23.9361C35.9382 24.5933 35.1018 25.3917 34.4015 26.3033V19.2025H35.2015C36.527 19.2025 37.6015 18.128 37.6015 16.8025C37.6015 15.4771 36.527 14.4025 35.2015 14.4025C33.876 14.4025 32.8015 15.4771 32.8015 16.8025V17.6025H31.2015V16.8025C31.2015 15.4771 30.127 14.4025 28.8015 14.4025C27.476 14.4025 26.4015 15.4771 26.4015 16.8025C26.4015 18.128 27.476 19.2025 28.8015 19.2025H29.6015V26.3033C28.9025 25.3921 28.0674 24.594 27.1255 23.9369C26.5427 23.5158 25.9972 23.0453 25.4951 22.5305C23.9698 20.7772 23.1521 18.5187 23.2015 16.1953C23.2815 11.3201 27.3071 7.20254 32.0015 7.20254C36.6959 7.20254 40.7255 11.3201 40.8015 16.1953ZM34.4015 17.6025V16.8025C34.4015 16.3607 34.7597 16.0025 35.2015 16.0025C35.6433 16.0025 36.0015 16.3607 36.0015 16.8025C36.0015 17.2444 35.6433 17.6025 35.2015 17.6025H34.4015Z" fill="#F2D5B3"/>
<path d="M44.8015 16.8026H47.2015C47.6433 16.8026 48.0015 16.4445 48.0015 16.0026C48.0015 15.5608 47.6433 15.2026 47.2015 15.2026H44.8015C44.3597 15.2026 44.0015 15.5608 44.0015 16.0026C44.0015 16.4445 44.3597 16.8026 44.8015 16.8026Z" fill="#F2D5B3"/>
<path d="M41.0519 7.75227C41.2643 7.75244 41.4681 7.66811 41.6183 7.51787L43.3151 5.82027C43.5231 5.61941 43.6065 5.32197 43.5333 5.04227C43.46 4.76257 43.2416 4.54413 42.9619 4.47092C42.6822 4.3977 42.3848 4.48111 42.1839 4.68907L40.4863 6.38587C40.257 6.61459 40.1882 6.959 40.3121 7.25824C40.436 7.55749 40.728 7.75253 41.0519 7.75227Z" fill="#F2D5B3"/>
<path d="M32.0015 4.00269C32.4433 4.00269 32.8015 3.64451 32.8015 3.20269V0.802686C32.8015 0.360858 32.4433 0.00268555 32.0015 0.00268555C31.5597 0.00268555 31.2015 0.360858 31.2015 0.802686V3.20269C31.2015 3.64451 31.5597 4.00269 32.0015 4.00269Z" fill="#F2D5B3"/>
<path d="M23.5167 7.51787C23.6669 7.36782 23.7513 7.1642 23.7513 6.95187C23.7513 6.73955 23.6669 6.53593 23.5167 6.38587L21.8191 4.68907C21.6182 4.48111 21.3208 4.3977 21.0411 4.47092C20.7614 4.54413 20.5429 4.76257 20.4697 5.04227C20.3965 5.32197 20.4799 5.61942 20.6879 5.82027L22.3847 7.51787C22.5347 7.6681 22.7384 7.7525 22.9507 7.7525C23.163 7.7525 23.3666 7.6681 23.5167 7.51787Z" fill="#F2D5B3"/>
<path d="M16.8015 15.2026C16.3597 15.2026 16.0015 15.5608 16.0015 16.0026C16.0015 16.4445 16.3597 16.8026 16.8015 16.8026H19.2015C19.6433 16.8026 20.0015 16.4445 20.0015 16.0026C20.0015 15.5608 19.6433 15.2026 19.2015 15.2026H16.8015Z" fill="#F2D5B3"/>
</svg>
