<svg width="48" height="49" viewBox="0 0 48 49" fill="none" xmlns="http://www.w3.org/2000/svg">
<g clip-path="url(#clip0_462_7751)">
<path d="M23.9948 4.22144L24.0003 5.15894L23.9948 4.22144Z" fill="black"/>
<path d="M18.0829 20.1823C17.3498 18.6321 15.7688 17.6304 14.0553 17.6304C12.3417 17.6304 10.7608 18.632 10.0277 20.1823C9.80631 20.6503 10.0063 21.2092 10.4744 21.4305C10.9423 21.6518 11.5012 21.4519 11.7227 20.9838C12.1473 20.0857 13.063 19.5054 14.0553 19.5054C15.0475 19.5054 15.9632 20.0857 16.3879 20.9838C16.548 21.3225 16.8847 21.5208 17.236 21.5208C17.3703 21.5208 17.5067 21.4918 17.6361 21.4305C18.1042 21.2092 18.3042 20.6503 18.0829 20.1823Z" fill="#43464F"/>
<path d="M37.9726 20.1823C37.2395 18.6321 35.6585 17.6304 33.945 17.6304C32.2314 17.6304 30.6505 18.632 29.9174 20.1823C29.696 20.6503 29.896 21.2092 30.3641 21.4305C30.8319 21.6518 31.391 21.4519 31.6124 20.9838C32.037 20.0857 32.9527 19.5054 33.945 19.5054C34.9372 19.5054 35.8529 20.0857 36.2776 20.9838C36.4377 21.3225 36.7744 21.5208 37.1257 21.5208C37.26 21.5208 37.3965 21.4918 37.5258 21.4305C37.9939 21.2092 38.1939 20.6503 37.9726 20.1823Z" fill="#43464F"/>
<path d="M30.8327 29.1714H17.3326C16.8149 29.1714 16.3951 29.5911 16.3951 30.1089C16.3951 34.3478 19.8437 37.7964 24.0827 37.7964C28.3216 37.7964 31.7702 34.3477 31.7702 30.1089C31.7702 29.5911 31.3505 29.1714 30.8327 29.1714ZM24.0827 35.9214C21.1968 35.9214 18.7952 33.8073 18.3457 31.0464H29.8196C29.3701 33.8073 26.9686 35.9214 24.0827 35.9214Z" fill="#F2D5B3"/>
<path d="M43.2487 9.6627C42.9389 9.24795 42.3516 9.16283 41.9366 9.47258C41.5219 9.78242 41.4366 10.3699 41.7465 10.7847C48.2692 19.5183 47.3656 31.9265 39.6448 39.6474C31.0183 48.2739 16.9818 48.2739 8.3553 39.6474C-0.271313 31.0209 -0.271313 16.9844 8.3553 8.35789C16.0849 0.628278 28.5017 -0.269006 37.2379 6.2711C37.6524 6.58132 38.24 6.49685 38.5503 6.08238C38.8605 5.66791 38.776 5.08038 38.3615 4.77007C33.7853 1.34425 28.108 -0.329193 22.375 0.0573387C16.5864 0.447902 11.1366 2.92478 7.02939 7.03198C2.49647 11.5651 0 17.592 0 24.0026C0 30.4133 2.49647 36.4403 7.02939 40.9733C11.5625 45.5062 17.5894 48.0027 24 48.0027C30.4107 48.0027 36.4376 45.5062 40.9706 40.9732C45.0743 36.8694 47.551 31.4241 47.9444 25.6405C48.3339 19.913 46.6663 14.2386 43.2487 9.6627Z" fill="#43464F"/>
<path d="M40.9812 7.04269L40.9635 7.02488C40.5984 6.65775 40.0047 6.65625 39.6377 7.02141C39.2705 7.38657 39.269 7.98019 39.6342 8.34722L39.6519 8.36504C39.8351 8.54916 40.0758 8.64132 40.3165 8.64132C40.5556 8.64132 40.7948 8.55047 40.9777 8.3685C41.3448 8.00335 41.3463 7.40972 40.9812 7.04269Z" fill="#43464F"/>
</g>
<defs>
<clipPath id="clip0_462_7751">
<rect width="48" height="48" fill="white" transform="translate(0 0.00268555)"/>
</clipPath>
</defs>
</svg>
