<svg width="48" height="45" viewBox="0 0 48 45" fill="none" xmlns="http://www.w3.org/2000/svg">
<path d="M29.3332 11.5672C29.5162 11.7503 29.7562 11.8418 29.9961 11.8418C30.236 11.8418 30.476 11.7503 30.659 11.5672C31.025 11.2011 31.025 10.6075 30.659 10.2413L30.6463 10.2287C30.2802 9.86258 29.6866 9.86258 29.3204 10.2287C28.9543 10.5948 28.9543 11.1884 29.3204 11.5546L29.3332 11.5672Z" fill="#2E3034"/>
<path d="M44.4577 20.4375L47.7254 17.1698C47.9935 16.9017 48.0737 16.4984 47.9286 16.1482C47.7834 15.7978 47.4416 15.5694 47.0624 15.5694H40.2889C39.4035 11.9451 37.5453 8.64253 34.8889 5.98603C31.0289 2.12587 25.8966 0 20.4375 0C14.9784 0 9.84609 2.12587 5.98603 5.98603C2.12588 9.84619 0 14.9784 0 20.4375C0 25.8966 2.12588 31.0289 5.98603 34.889C7.13391 36.0368 8.39494 37.03 9.74297 37.8608L6.91856 42.8507C6.75431 43.1409 6.75656 43.4966 6.92456 43.7846C7.09247 44.0728 7.40081 44.25 7.73438 44.25H12.5625C12.9003 44.25 13.212 44.0683 13.3784 43.7743L15.3755 40.246C17.01 40.6607 18.7073 40.875 20.4375 40.875C22.1677 40.875 23.865 40.6607 25.4995 40.246L27.4966 43.7743C27.663 44.0683 27.9747 44.25 28.3125 44.25H33.1406C33.4742 44.25 33.7825 44.0728 33.9505 43.7847C34.1185 43.4966 34.1208 43.1409 33.9565 42.8508L31.1321 37.8609C32.4802 37.03 33.7412 36.0369 34.8891 34.8891C37.5444 32.2337 39.4036 28.9298 40.2889 25.3057H47.0625C47.4416 25.3057 47.7835 25.0772 47.9287 24.7269C48.0738 24.3767 47.9935 23.9734 47.7255 23.7052L44.4577 20.4375ZM42.7435 19.5H36.2008L38.2564 17.4444H44.7992L42.7435 19.5ZM12.0158 42.375H9.34228L11.3828 38.77C12.0832 39.1167 12.8021 39.4234 13.5377 39.6864L12.0158 42.375ZM31.5327 42.375H28.8592L27.3373 39.6864C28.0729 39.4234 28.7918 39.1167 29.4922 38.77L31.5327 42.375ZM33.5632 33.5632C32.3247 34.8016 30.9415 35.8424 29.4526 36.6721C29.4342 36.681 29.4157 36.6894 29.3976 36.6997C29.3862 36.7061 29.3759 36.7135 29.3649 36.7204C28.2228 37.3487 27.0192 37.8532 25.7704 38.2257C25.7212 38.2355 25.6727 38.2499 25.6248 38.2679C23.9603 38.7496 22.2183 39 20.4375 39C18.6567 39 16.9147 38.7496 15.2502 38.268C15.2022 38.25 15.1537 38.2356 15.1044 38.2258C13.8557 37.8533 12.6521 37.3488 11.5101 36.7205C11.4991 36.7136 11.4888 36.7062 11.4774 36.6997C11.4593 36.6895 11.4409 36.6811 11.4225 36.6722C9.93356 35.8425 8.55037 34.8017 7.31194 33.5632C3.80588 30.0572 1.875 25.3958 1.875 20.4375C1.875 15.4792 3.80587 10.8178 7.31184 7.31184C10.8178 3.80587 15.4792 1.875 20.4375 1.875C25.3958 1.875 30.0572 3.80587 33.5632 7.31184C35.8669 9.61556 37.5099 12.4535 38.3536 15.5694H37.8682C37.6195 15.5694 37.381 15.6683 37.2052 15.844L34.717 18.3323C34.466 16.6278 33.9149 14.9705 33.0828 13.4633C32.8326 13.01 32.2622 12.8455 31.8089 13.0957C31.3556 13.3459 31.1911 13.9162 31.4413 14.3695C32.3313 15.9815 32.8284 17.734 32.9557 19.5001H28.822C28.6133 17.6011 27.7742 15.8419 26.4038 14.4714C24.8101 12.8777 22.6912 12 20.4375 12C18.1838 12 16.0649 12.8777 14.4713 14.4713C12.8777 16.065 12 18.1838 12 20.4375C12 22.6912 12.8777 24.8101 14.4713 26.4037C16.0649 27.9973 18.1838 28.875 20.4375 28.875C22.6912 28.875 24.8101 27.9973 26.4037 26.4038C27.7741 25.0333 28.6133 23.2741 28.8219 21.375H32.9515C32.7279 24.3056 31.4913 27.1496 29.3205 29.3205C26.9478 31.6933 23.793 33 20.4375 33C17.082 33 13.9272 31.6933 11.5545 29.3205C9.18169 26.9478 7.875 23.7931 7.875 20.4375C7.875 17.0819 9.18169 13.9272 11.5545 11.5545C15.4903 7.61869 21.6384 6.74662 26.5056 9.43378C26.9588 9.68391 27.5291 9.51947 27.7794 9.06619C28.0297 8.61291 27.8651 8.04262 27.4118 7.79231C24.7264 6.30966 21.5643 5.71875 18.5083 6.12881C15.3503 6.55238 12.4872 7.97006 10.2287 10.2287C7.50178 12.9556 6 16.5811 6 20.4375C6 24.2939 7.50178 27.9195 10.2286 30.6463C12.9555 33.3732 16.5811 34.875 20.4375 34.875C24.2939 34.875 27.9195 33.3732 30.6463 30.6464C32.8621 28.4307 34.2678 25.6331 34.7203 22.5462L37.2052 25.0311C37.3809 25.2068 37.6194 25.3057 37.8681 25.3057H38.3533C37.5097 28.4214 35.8659 31.2604 33.5632 33.5632ZM23.4994 18.6698C23.2405 18.2213 22.6672 18.0677 22.2188 18.3266L19.9688 19.6256C19.6787 19.7931 19.5 20.1025 19.5 20.4375C19.5 20.7725 19.6787 21.0819 19.9688 21.2494L22.2188 22.5484C22.3664 22.6336 22.5276 22.6741 22.6867 22.6741C23.0107 22.6741 23.3257 22.506 23.4994 22.2052C23.6515 21.9418 23.6602 21.6355 23.5514 21.375H26.9332C26.7345 22.7722 26.0935 24.0623 25.0778 25.0778C23.8384 26.3174 22.1904 27 20.4375 27C18.6846 27 17.0366 26.3174 15.7971 25.0778C14.5576 23.8384 13.875 22.1904 13.875 20.4375C13.875 18.6846 14.5576 17.0366 15.7972 15.7971C17.0366 14.5576 18.6846 13.875 20.4375 13.875C22.1904 13.875 23.8384 14.5576 25.0779 15.7972C26.0935 16.8128 26.7346 18.1028 26.9333 19.5H23.5515C23.6602 19.2394 23.6515 18.9332 23.4994 18.6698ZM38.2564 23.4306L36.2008 21.375H42.7435L44.7992 23.4306H38.2564Z" fill="#43464F"/>
<path fill-rule="evenodd" clip-rule="evenodd" d="M44.4577 20.4374L47.7254 17.1697C47.9935 16.9016 48.0737 16.4983 47.9286 16.1481C47.7834 15.7977 47.4416 15.5693 47.0624 15.5693H40.2889H38.3536H37.8682C37.6195 15.5693 37.381 15.6681 37.2052 15.8439L34.717 18.3321L32.9557 19.5H28.822L26.9333 19.4999H23.5515C23.6603 19.2393 23.6515 18.9331 23.4994 18.6696C23.2405 18.2211 22.6672 18.0676 22.2188 18.3265L19.9688 19.6255C19.6787 19.793 19.5 20.1024 19.5 20.4374C19.5 20.7724 19.6787 21.0818 19.9688 21.2493L22.2188 22.5483C22.3664 22.6335 22.5276 22.674 22.6867 22.674C23.0107 22.674 23.3257 22.5059 23.4994 22.2051C23.6515 21.9417 23.6603 21.6354 23.5514 21.3749H26.9332H27.8601H28.8219H32.9515L34.7203 22.5461L37.2052 25.031C37.3809 25.2067 37.6194 25.3056 37.8681 25.3056H38.3533H40.2889H47.0625C47.4416 25.3056 47.7835 25.0771 47.9287 24.7268C48.0738 24.3766 47.9935 23.9733 47.7255 23.7051L44.4577 20.4374ZM36.2008 19.4999H42.7435L44.7992 17.4443H38.2564L36.2008 19.4999ZM36.2008 21.3749L38.2564 23.4305H44.7992L42.7435 21.3749H36.2008Z" fill="#F2D5B3"/>
</svg>
