<svg width="42" height="48" viewBox="0 0 42 48" fill="none" xmlns="http://www.w3.org/2000/svg">
<path d="M34.5426 32.863C34.3178 33.227 34.4035 33.7088 34.7549 33.9528C35.1062 34.1966 35.5901 34.1107 35.8166 33.7479C35.8791 33.6478 35.9408 33.5465 36.0017 33.4442C36.2205 33.0764 36.0767 32.6057 35.6994 32.4038C35.3226 32.2023 34.8556 32.345 34.6353 32.7111C34.6046 32.762 34.5737 32.8127 34.5426 32.863Z" fill="#2E3034"/>
<path d="M27.0969 7.74194C25.6918 7.74194 24.3161 8.09729 23.0074 8.79701C21.7 9.49794 20.7749 10.786 20.44 12.3298C20.3494 12.7476 20.6701 13.1245 21.096 13.1613C21.522 13.198 21.8893 12.8792 21.9969 12.4654C22.2623 11.4439 22.8736 10.6257 23.7385 10.1628C24.82 9.58368 25.9496 9.29033 27.0969 9.29033C32.5525 9.29033 37.1614 16.0267 37.1614 24C37.1614 26.3252 36.7608 28.633 35.9983 30.7237C35.8518 31.1253 36.0374 31.5778 36.4322 31.7419C36.8271 31.906 37.2818 31.7192 37.4297 31.3179C38.2685 29.0407 38.7098 26.5271 38.7098 24C38.7098 15.1875 33.3917 7.74194 27.0969 7.74194Z" fill="#43464F"/>
<path d="M27.0968 4.64516C25.176 4.64516 23.3078 5.12374 21.5459 6.06729C19.6881 7.06229 18.3633 8.70563 17.6973 10.6504C17.4208 11.458 16.3492 11.8038 15.8357 11.1218C13.6153 8.17361 12.3871 4.55832 12.3871 0.774194C12.3871 0.346618 12.0405 0 11.6129 0H8.51613C8.08855 0 7.74194 0.346618 7.74194 0.774194C7.74194 7.95961 11.1914 14.5497 17.0165 18.6461C17.3719 18.8961 17.5524 19.3454 17.3734 19.7413C17.1821 20.1647 16.9278 20.5455 16.6081 20.8575C16.3575 21.1021 16.3019 21.4849 16.4732 21.7904C16.8395 22.4406 17.0323 23.2058 17.0323 24C17.0323 24.7942 16.8395 25.5593 16.4739 26.2096C16.3027 26.5151 16.3582 26.8979 16.6089 27.1425C17.3698 27.8865 17.8065 28.9975 17.8065 30.1935C17.8065 30.6502 17.7429 31.0963 17.6091 31.5514C17.1763 33.031 15.7965 34.0645 14.2553 34.0645H13.1613C5.90398 34.0645 0 39.9685 0 47.2258C0 47.6534 0.34662 48 0.774197 48H5.41908C5.78832 48 6.10626 47.7394 6.17881 47.3774C7.00328 43.252 10.6561 40.2581 14.8632 40.2581H15.9972C17.8923 40.2581 19.6202 40.7257 20.9955 41.6099C21.1728 41.7229 21.3561 41.8314 21.5451 41.9327C23.3078 42.8763 25.176 43.3548 27.0968 43.3548C35.208 43.3548 41.8065 34.6724 41.8065 24C41.8065 13.3276 35.208 4.64516 27.0968 4.64516ZM9.35055 2.35242C9.31717 1.91397 9.67042 1.54839 10.1101 1.54839C10.5263 1.54839 10.8666 1.87717 10.8999 2.292C11.282 7.05562 13.4547 11.4733 17.0053 14.6798C17.1866 14.8436 17.305 15.0652 17.346 15.306C17.4126 15.6968 17.5028 16.0894 17.6182 16.4811C17.709 16.7884 17.3593 16.9956 17.1064 16.7989C12.5885 13.2848 9.7866 8.07916 9.35055 2.35242ZM27.0968 41.8064C25.4338 41.8064 23.8117 41.3899 22.2758 40.5669C22.1235 40.4856 21.9745 40.3983 21.8332 40.3068C20.208 39.2623 18.1905 38.7097 15.998 38.7097H14.8639C10.3964 38.7097 6.46079 41.5835 5.03005 45.7153C4.88159 46.1441 4.48947 46.4516 4.03577 46.4516H2.64245C2.06418 46.4516 1.60246 45.9611 1.69354 45.39C2.57627 39.8555 7.3824 35.6129 13.1613 35.6129H14.2553C16.4803 35.6129 18.4699 34.122 19.1031 31.9578C19.2705 31.3919 19.3548 30.798 19.3548 30.1935C19.3548 29.0103 19.0276 27.879 18.4347 26.9525C18.2329 26.6371 18.1783 26.2449 18.2916 25.888C18.4821 25.2881 18.5806 24.65 18.5806 24C18.5806 23.35 18.4821 22.7119 18.2916 22.112C18.1783 21.7551 18.2329 21.3629 18.4347 21.0475C19.0276 20.121 19.3548 18.9897 19.3548 17.8065C19.3548 17.202 19.2705 16.6081 19.1031 16.0422C18.0673 12.5289 19.3726 8.98828 22.2766 7.43309C23.8117 6.61013 25.4338 6.19355 27.0968 6.19355C34.3541 6.19355 40.2581 14.1808 40.2581 24C40.2581 33.8192 34.3541 41.8064 27.0968 41.8064Z" fill="#43464F"/>
<path d="M29.9371 16C29.3938 16 28.8626 16.1542 28.4033 16.4362C27.944 16.1542 27.4129 16 26.8695 16C25.234 15.9999 23.9033 17.3548 23.9033 19.0203C23.9033 19.9641 24.5819 21.0977 25.978 22.4858C26.9179 23.4204 27.8451 24.1319 27.8841 24.1617C28.0373 24.2789 28.2203 24.3375 28.4033 24.3375C28.5863 24.3375 28.7693 24.2789 28.9225 24.1617C28.9616 24.1319 29.8888 23.4204 30.8287 22.4859C32.2247 21.0977 32.9033 19.9642 32.9033 19.0204C32.9033 17.3549 31.5727 16 29.9371 16ZM28.4031 22.3891C26.9745 21.2026 25.6129 19.6889 25.6129 19.0203C25.6129 18.2975 26.1766 17.7095 26.8695 17.7095C27.2141 17.7095 27.5357 17.8523 27.7751 18.1118C27.937 18.2872 28.1647 18.387 28.4033 18.387C28.642 18.387 28.8698 18.2872 29.0316 18.1118C29.2709 17.8524 29.5925 17.7095 29.9371 17.7095C30.63 17.7095 31.1938 18.2975 31.1938 19.0203C31.1938 19.687 29.8317 21.2013 28.4031 22.3891Z" fill="#F2D5B3"/>
<path d="M24.502 26.9201C24.0879 27.2719 23.7829 27.7333 23.6154 28.2456C23.0828 28.328 22.5781 28.5543 22.164 28.9061C20.9174 29.9649 20.7804 31.859 21.8587 33.1283C22.4697 33.8477 23.7207 34.2723 25.6834 34.4265C27.0049 34.5303 28.1722 34.4722 28.2212 34.4697C28.4138 34.4599 28.5912 34.386 28.7307 34.2675C28.8701 34.149 28.9717 33.986 29.0126 33.7975C29.0231 33.7494 29.2691 32.6069 29.3805 31.2862C29.5458 29.3244 29.3291 28.0212 28.7181 27.3018C27.6398 26.0325 25.7485 25.8613 24.502 26.9201ZM27.4691 32.7827C25.6122 32.8033 23.5945 32.5311 23.1616 32.0216C22.6937 31.4707 22.7426 30.6576 23.2707 30.209C23.5334 29.9859 23.8709 29.8865 24.2214 29.9294C24.4583 29.9583 24.6964 29.8869 24.8783 29.7324C25.0602 29.5779 25.1693 29.3543 25.179 29.1159C25.1935 28.7632 25.346 28.4461 25.6087 28.223C26.1368 27.7744 26.9471 27.8576 27.4151 28.4085C27.8467 28.9167 27.789 30.9526 27.4691 32.7827Z" fill="#F2D5B3"/>
</svg>
