<svg width="45" height="50" viewBox="0 0 45 50" fill="none" xmlns="http://www.w3.org/2000/svg">
<mask id="path-1-outside-1_679_7837" maskUnits="userSpaceOnUse" x="5.69141" y="0.00268555" width="32" height="50" fill="black">
<rect fill="white" x="5.69141" y="0.00268555" width="32" height="50"/>
<path d="M33.7479 48.1752C31.2752 47.6471 29.4778 46.2407 28.3966 44.0018C26.838 40.7676 27.3101 36.975 27.5183 36.4215C29.3765 34.9999 30.7574 33.1416 31.783 30.6385C33.291 30.6031 34.7838 29.4404 35.7938 27.5159C36.6367 25.9063 37.0833 23.6878 36.1745 22.3728C35.9918 22.1037 35.7124 21.8246 35.2962 21.6266C36.3931 19.5449 36.6162 17.7985 36.6162 15.5542C36.6162 7.5323 29.9957 1.00269 21.8625 1.00269C18.5473 1.00269 15.4806 2.0892 13.0129 3.91708C13.0026 3.92203 12.9927 3.92735 12.9824 3.9323C12.9519 3.95249 12.9264 3.97799 12.9013 4.00349C9.37783 6.66393 7.10308 10.8525 7.10308 15.5541C7.10308 18.0063 7.15372 19.3467 8.24562 21.3318C7.73281 21.5298 7.40273 21.8496 7.19446 22.1542C6.28574 23.4741 6.72734 25.688 7.57518 27.2972C8.60077 29.2571 10.129 30.4248 11.6621 30.4248C11.7333 30.4248 11.7992 30.4046 11.8551 30.3741C12.9569 33.0242 14.4192 35.0604 16.2063 36.421C16.4092 36.9692 16.8866 40.7619 15.328 44.0013C14.2464 46.2402 12.444 47.6466 9.97672 48.18C9.75325 48.2257 9.61124 48.4492 9.65692 48.6726C9.69765 48.8656 9.87013 49.0027 10.0631 49.0027C10.0936 49.0027 10.1191 48.9977 10.1496 48.9924C14.6225 48.0326 16.2931 44.6363 16.9072 41.9554C17.2982 40.2597 17.3336 38.371 17.1863 37.137C18.5774 38.0153 20.2023 38.4875 21.8622 38.4875C23.5224 38.4875 25.1523 38.0101 26.5381 37.137C26.3858 38.3759 26.4265 40.2596 26.8171 41.9554C27.4316 44.6359 29.1018 48.0326 33.5748 48.9924C33.6052 48.9974 33.6357 49.0027 33.6612 49.0027C33.8542 49.0027 34.0267 48.8706 34.0674 48.6726C34.1138 48.4389 33.9718 48.2207 33.7483 48.175L33.7479 48.1752ZM35.7839 15.5488C35.7839 18.0672 35.4386 19.6259 34.4739 21.3874C34.3014 21.3672 34.1183 21.357 33.9154 21.3619C34.8291 10.0244 27.5537 7.26731 27.4775 7.24283C27.2594 7.16669 27.0256 7.27825 26.9445 7.49145C26.8684 7.70465 26.9799 7.94335 27.1931 8.02445C27.2541 8.04464 32.2246 9.93864 33.042 17.3257C30.1532 10.1873 21.2684 10.2483 21.1614 10.2581C20.933 10.2631 20.7503 10.4512 20.7552 10.6796C20.7602 10.908 20.9429 11.0858 21.1717 11.0858H21.1767C21.5981 11.0755 30.9348 11.0199 32.7835 19.316C31.8797 18.1838 30.5598 17.1733 28.7978 16.2596C27.7923 15.7365 26.7313 15.2999 25.7057 14.8788C24.6192 14.4319 23.4972 13.9701 22.4513 13.4115C18.5117 11.2891 15.9933 7.81619 13.7745 4.389C16.0543 2.77936 18.8467 1.8302 21.8574 1.8302C29.5393 1.8302 35.7843 7.98365 35.7843 15.5485L35.7839 15.5488ZM7.93558 15.5488C7.93558 11.2483 9.95638 7.40505 13.109 4.88677C15.211 8.13617 17.5973 11.4263 21.2175 13.6397C20.4104 14.6909 16.714 19.1128 10.6515 20.9254C10.9713 17.6962 13.9515 14.4925 13.9819 14.4621C14.1392 14.2945 14.1293 14.0303 13.9667 13.8731C13.7992 13.7158 13.535 13.7258 13.3827 13.8883C13.2407 14.0406 9.986 17.5287 9.80331 21.1588C9.79835 21.1588 9.79304 21.1588 9.78808 21.1637C9.53946 21.1382 9.31068 21.1333 9.10279 21.1435C7.98581 19.2145 7.93513 18.0114 7.93513 15.5489L7.93558 15.5488ZM16.7749 35.8068C14.8812 34.3803 13.3683 32.1462 12.2867 29.1911L11.5862 26.8201C11.5203 26.6019 11.2919 26.4748 11.0684 26.541C10.8503 26.6069 10.7231 26.8353 10.7893 27.0588L11.5001 29.4554C11.5154 29.5011 11.5355 29.5418 11.5508 29.5875C10.1646 29.5163 8.97674 28.1709 8.31662 26.9118C7.45354 25.2667 7.27579 23.5052 7.8849 22.6265C8.24544 22.1034 8.88012 21.8955 9.77361 22.0071H9.80903H9.82426H9.83948C9.86498 22.0071 9.89013 22.0021 9.91563 21.9968H9.9259H9.93086C9.93581 21.9968 9.94113 21.9968 9.94609 21.9919C10.0424 21.9664 10.1391 21.9412 10.2305 21.9157C10.2864 21.9108 10.342 21.8955 10.393 21.875C17.2322 20.032 21.1974 15.0766 21.9436 14.0715C21.9893 14.097 22.035 14.1275 22.0807 14.1526C23.1623 14.7313 24.3044 15.2038 25.4062 15.6553C26.4117 16.0718 27.4575 16.4982 28.4321 17.0057C30.93 18.2953 32.4581 19.7728 33.1134 21.5142C33.1134 21.5192 33.1183 21.5191 33.1183 21.5245C33.1233 21.5347 33.1286 21.55 33.1336 21.5599C33.1385 21.5701 33.1438 21.5801 33.1537 21.5903C33.1587 21.6006 33.169 21.6105 33.1739 21.6208C33.1739 21.6208 33.1739 21.6257 33.1789 21.6257C33.1435 21.6969 33.1229 21.783 33.1332 21.8694C33.1587 22.0978 33.3666 22.2604 33.5954 22.2299C34.4889 22.1233 35.1235 22.3316 35.4841 22.8494C36.0932 23.7277 35.9158 25.4946 35.0524 27.1347C34.4379 28.3077 33.3666 29.5465 32.1026 29.7749C32.2195 29.4448 32.336 29.1048 32.443 28.7542L32.9303 26.7029C32.9809 26.4795 32.8439 26.256 32.6208 26.2053C32.3973 26.1547 32.1738 26.2918 32.1232 26.5149L31.6408 28.5407C30.6201 31.851 29.1327 34.1611 26.9344 35.8214C26.9295 35.8214 26.9295 35.8264 26.9242 35.8264C25.5026 37.0043 23.7052 37.6542 21.8572 37.6542C20.0142 37.6499 18.2119 37.0001 16.7751 35.8069L16.7749 35.8068Z"/>
</mask>
<path d="M33.7479 48.1752C31.2752 47.6471 29.4778 46.2407 28.3966 44.0018C26.838 40.7676 27.3101 36.975 27.5183 36.4215C29.3765 34.9999 30.7574 33.1416 31.783 30.6385C33.291 30.6031 34.7838 29.4404 35.7938 27.5159C36.6367 25.9063 37.0833 23.6878 36.1745 22.3728C35.9918 22.1037 35.7124 21.8246 35.2962 21.6266C36.3931 19.5449 36.6162 17.7985 36.6162 15.5542C36.6162 7.5323 29.9957 1.00269 21.8625 1.00269C18.5473 1.00269 15.4806 2.0892 13.0129 3.91708C13.0026 3.92203 12.9927 3.92735 12.9824 3.9323C12.9519 3.95249 12.9264 3.97799 12.9013 4.00349C9.37783 6.66393 7.10308 10.8525 7.10308 15.5541C7.10308 18.0063 7.15372 19.3467 8.24562 21.3318C7.73281 21.5298 7.40273 21.8496 7.19446 22.1542C6.28574 23.4741 6.72734 25.688 7.57518 27.2972C8.60077 29.2571 10.129 30.4248 11.6621 30.4248C11.7333 30.4248 11.7992 30.4046 11.8551 30.3741C12.9569 33.0242 14.4192 35.0604 16.2063 36.421C16.4092 36.9692 16.8866 40.7619 15.328 44.0013C14.2464 46.2402 12.444 47.6466 9.97672 48.18C9.75325 48.2257 9.61124 48.4492 9.65692 48.6726C9.69765 48.8656 9.87013 49.0027 10.0631 49.0027C10.0936 49.0027 10.1191 48.9977 10.1496 48.9924C14.6225 48.0326 16.2931 44.6363 16.9072 41.9554C17.2982 40.2597 17.3336 38.371 17.1863 37.137C18.5774 38.0153 20.2023 38.4875 21.8622 38.4875C23.5224 38.4875 25.1523 38.0101 26.5381 37.137C26.3858 38.3759 26.4265 40.2596 26.8171 41.9554C27.4316 44.6359 29.1018 48.0326 33.5748 48.9924C33.6052 48.9974 33.6357 49.0027 33.6612 49.0027C33.8542 49.0027 34.0267 48.8706 34.0674 48.6726C34.1138 48.4389 33.9718 48.2207 33.7483 48.175L33.7479 48.1752ZM35.7839 15.5488C35.7839 18.0672 35.4386 19.6259 34.4739 21.3874C34.3014 21.3672 34.1183 21.357 33.9154 21.3619C34.8291 10.0244 27.5537 7.26731 27.4775 7.24283C27.2594 7.16669 27.0256 7.27825 26.9445 7.49145C26.8684 7.70465 26.9799 7.94335 27.1931 8.02445C27.2541 8.04464 32.2246 9.93864 33.042 17.3257C30.1532 10.1873 21.2684 10.2483 21.1614 10.2581C20.933 10.2631 20.7503 10.4512 20.7552 10.6796C20.7602 10.908 20.9429 11.0858 21.1717 11.0858H21.1767C21.5981 11.0755 30.9348 11.0199 32.7835 19.316C31.8797 18.1838 30.5598 17.1733 28.7978 16.2596C27.7923 15.7365 26.7313 15.2999 25.7057 14.8788C24.6192 14.4319 23.4972 13.9701 22.4513 13.4115C18.5117 11.2891 15.9933 7.81619 13.7745 4.389C16.0543 2.77936 18.8467 1.8302 21.8574 1.8302C29.5393 1.8302 35.7843 7.98365 35.7843 15.5485L35.7839 15.5488ZM7.93558 15.5488C7.93558 11.2483 9.95638 7.40505 13.109 4.88677C15.211 8.13617 17.5973 11.4263 21.2175 13.6397C20.4104 14.6909 16.714 19.1128 10.6515 20.9254C10.9713 17.6962 13.9515 14.4925 13.9819 14.4621C14.1392 14.2945 14.1293 14.0303 13.9667 13.8731C13.7992 13.7158 13.535 13.7258 13.3827 13.8883C13.2407 14.0406 9.986 17.5287 9.80331 21.1588C9.79835 21.1588 9.79304 21.1588 9.78808 21.1637C9.53946 21.1382 9.31068 21.1333 9.10279 21.1435C7.98581 19.2145 7.93513 18.0114 7.93513 15.5489L7.93558 15.5488ZM16.7749 35.8068C14.8812 34.3803 13.3683 32.1462 12.2867 29.1911L11.5862 26.8201C11.5203 26.6019 11.2919 26.4748 11.0684 26.541C10.8503 26.6069 10.7231 26.8353 10.7893 27.0588L11.5001 29.4554C11.5154 29.5011 11.5355 29.5418 11.5508 29.5875C10.1646 29.5163 8.97674 28.1709 8.31662 26.9118C7.45354 25.2667 7.27579 23.5052 7.8849 22.6265C8.24544 22.1034 8.88012 21.8955 9.77361 22.0071H9.80903H9.82426H9.83948C9.86498 22.0071 9.89013 22.0021 9.91563 21.9968H9.9259H9.93086C9.93581 21.9968 9.94113 21.9968 9.94609 21.9919C10.0424 21.9664 10.1391 21.9412 10.2305 21.9157C10.2864 21.9108 10.342 21.8955 10.393 21.875C17.2322 20.032 21.1974 15.0766 21.9436 14.0715C21.9893 14.097 22.035 14.1275 22.0807 14.1526C23.1623 14.7313 24.3044 15.2038 25.4062 15.6553C26.4117 16.0718 27.4575 16.4982 28.4321 17.0057C30.93 18.2953 32.4581 19.7728 33.1134 21.5142C33.1134 21.5192 33.1183 21.5191 33.1183 21.5245C33.1233 21.5347 33.1286 21.55 33.1336 21.5599C33.1385 21.5701 33.1438 21.5801 33.1537 21.5903C33.1587 21.6006 33.169 21.6105 33.1739 21.6208C33.1739 21.6208 33.1739 21.6257 33.1789 21.6257C33.1435 21.6969 33.1229 21.783 33.1332 21.8694C33.1587 22.0978 33.3666 22.2604 33.5954 22.2299C34.4889 22.1233 35.1235 22.3316 35.4841 22.8494C36.0932 23.7277 35.9158 25.4946 35.0524 27.1347C34.4379 28.3077 33.3666 29.5465 32.1026 29.7749C32.2195 29.4448 32.336 29.1048 32.443 28.7542L32.9303 26.7029C32.9809 26.4795 32.8439 26.256 32.6208 26.2053C32.3973 26.1547 32.1738 26.2918 32.1232 26.5149L31.6408 28.5407C30.6201 31.851 29.1327 34.1611 26.9344 35.8214C26.9295 35.8214 26.9295 35.8264 26.9242 35.8264C25.5026 37.0043 23.7052 37.6542 21.8572 37.6542C20.0142 37.6499 18.2119 37.0001 16.7751 35.8069L16.7749 35.8068Z" fill="#43464F"/>
<path d="M33.7479 48.1752C31.2752 47.6471 29.4778 46.2407 28.3966 44.0018C26.838 40.7676 27.3101 36.975 27.5183 36.4215C29.3765 34.9999 30.7574 33.1416 31.783 30.6385C33.291 30.6031 34.7838 29.4404 35.7938 27.5159C36.6367 25.9063 37.0833 23.6878 36.1745 22.3728C35.9918 22.1037 35.7124 21.8246 35.2962 21.6266C36.3931 19.5449 36.6162 17.7985 36.6162 15.5542C36.6162 7.5323 29.9957 1.00269 21.8625 1.00269C18.5473 1.00269 15.4806 2.0892 13.0129 3.91708C13.0026 3.92203 12.9927 3.92735 12.9824 3.9323C12.9519 3.95249 12.9264 3.97799 12.9013 4.00349C9.37783 6.66393 7.10308 10.8525 7.10308 15.5541C7.10308 18.0063 7.15372 19.3467 8.24562 21.3318C7.73281 21.5298 7.40273 21.8496 7.19446 22.1542C6.28574 23.4741 6.72734 25.688 7.57518 27.2972C8.60077 29.2571 10.129 30.4248 11.6621 30.4248C11.7333 30.4248 11.7992 30.4046 11.8551 30.3741C12.9569 33.0242 14.4192 35.0604 16.2063 36.421C16.4092 36.9692 16.8866 40.7619 15.328 44.0013C14.2464 46.2402 12.444 47.6466 9.97672 48.18C9.75325 48.2257 9.61124 48.4492 9.65692 48.6726C9.69765 48.8656 9.87013 49.0027 10.0631 49.0027C10.0936 49.0027 10.1191 48.9977 10.1496 48.9924C14.6225 48.0326 16.2931 44.6363 16.9072 41.9554C17.2982 40.2597 17.3336 38.371 17.1863 37.137C18.5774 38.0153 20.2023 38.4875 21.8622 38.4875C23.5224 38.4875 25.1523 38.0101 26.5381 37.137C26.3858 38.3759 26.4265 40.2596 26.8171 41.9554C27.4316 44.6359 29.1018 48.0326 33.5748 48.9924C33.6052 48.9974 33.6357 49.0027 33.6612 49.0027C33.8542 49.0027 34.0267 48.8706 34.0674 48.6726C34.1138 48.4389 33.9718 48.2207 33.7483 48.175L33.7479 48.1752ZM35.7839 15.5488C35.7839 18.0672 35.4386 19.6259 34.4739 21.3874C34.3014 21.3672 34.1183 21.357 33.9154 21.3619C34.8291 10.0244 27.5537 7.26731 27.4775 7.24283C27.2594 7.16669 27.0256 7.27825 26.9445 7.49145C26.8684 7.70465 26.9799 7.94335 27.1931 8.02445C27.2541 8.04464 32.2246 9.93864 33.042 17.3257C30.1532 10.1873 21.2684 10.2483 21.1614 10.2581C20.933 10.2631 20.7503 10.4512 20.7552 10.6796C20.7602 10.908 20.9429 11.0858 21.1717 11.0858H21.1767C21.5981 11.0755 30.9348 11.0199 32.7835 19.316C31.8797 18.1838 30.5598 17.1733 28.7978 16.2596C27.7923 15.7365 26.7313 15.2999 25.7057 14.8788C24.6192 14.4319 23.4972 13.9701 22.4513 13.4115C18.5117 11.2891 15.9933 7.81619 13.7745 4.389C16.0543 2.77936 18.8467 1.8302 21.8574 1.8302C29.5393 1.8302 35.7843 7.98365 35.7843 15.5485L35.7839 15.5488ZM7.93558 15.5488C7.93558 11.2483 9.95638 7.40505 13.109 4.88677C15.211 8.13617 17.5973 11.4263 21.2175 13.6397C20.4104 14.6909 16.714 19.1128 10.6515 20.9254C10.9713 17.6962 13.9515 14.4925 13.9819 14.4621C14.1392 14.2945 14.1293 14.0303 13.9667 13.8731C13.7992 13.7158 13.535 13.7258 13.3827 13.8883C13.2407 14.0406 9.986 17.5287 9.80331 21.1588C9.79835 21.1588 9.79304 21.1588 9.78808 21.1637C9.53946 21.1382 9.31068 21.1333 9.10279 21.1435C7.98581 19.2145 7.93513 18.0114 7.93513 15.5489L7.93558 15.5488ZM16.7749 35.8068C14.8812 34.3803 13.3683 32.1462 12.2867 29.1911L11.5862 26.8201C11.5203 26.6019 11.2919 26.4748 11.0684 26.541C10.8503 26.6069 10.7231 26.8353 10.7893 27.0588L11.5001 29.4554C11.5154 29.5011 11.5355 29.5418 11.5508 29.5875C10.1646 29.5163 8.97674 28.1709 8.31662 26.9118C7.45354 25.2667 7.27579 23.5052 7.8849 22.6265C8.24544 22.1034 8.88012 21.8955 9.77361 22.0071H9.80903H9.82426H9.83948C9.86498 22.0071 9.89013 22.0021 9.91563 21.9968H9.9259H9.93086C9.93581 21.9968 9.94113 21.9968 9.94609 21.9919C10.0424 21.9664 10.1391 21.9412 10.2305 21.9157C10.2864 21.9108 10.342 21.8955 10.393 21.875C17.2322 20.032 21.1974 15.0766 21.9436 14.0715C21.9893 14.097 22.035 14.1275 22.0807 14.1526C23.1623 14.7313 24.3044 15.2038 25.4062 15.6553C26.4117 16.0718 27.4575 16.4982 28.4321 17.0057C30.93 18.2953 32.4581 19.7728 33.1134 21.5142C33.1134 21.5192 33.1183 21.5191 33.1183 21.5245C33.1233 21.5347 33.1286 21.55 33.1336 21.5599C33.1385 21.5701 33.1438 21.5801 33.1537 21.5903C33.1587 21.6006 33.169 21.6105 33.1739 21.6208C33.1739 21.6208 33.1739 21.6257 33.1789 21.6257C33.1435 21.6969 33.1229 21.783 33.1332 21.8694C33.1587 22.0978 33.3666 22.2604 33.5954 22.2299C34.4889 22.1233 35.1235 22.3316 35.4841 22.8494C36.0932 23.7277 35.9158 25.4946 35.0524 27.1347C34.4379 28.3077 33.3666 29.5465 32.1026 29.7749C32.2195 29.4448 32.336 29.1048 32.443 28.7542L32.9303 26.7029C32.9809 26.4795 32.8439 26.256 32.6208 26.2053C32.3973 26.1547 32.1738 26.2918 32.1232 26.5149L31.6408 28.5407C30.6201 31.851 29.1327 34.1611 26.9344 35.8214C26.9295 35.8214 26.9295 35.8264 26.9242 35.8264C25.5026 37.0043 23.7052 37.6542 21.8572 37.6542C20.0142 37.6499 18.2119 37.0001 16.7751 35.8069L16.7749 35.8068Z" stroke="#43464F" stroke-width="0.6" mask="url(#path-1-outside-1_679_7837)"/>
<path d="M18.3993 23.0684C16.4192 24.5917 14.0075 23.1092 13.9009 23.0483C13.7078 22.9264 13.449 22.9824 13.3271 23.175C13.2053 23.3681 13.2613 23.627 13.4539 23.7488C13.535 23.7994 14.8044 24.5864 16.358 24.5864C17.1704 24.5864 18.059 24.3732 18.8966 23.7282C19.0793 23.5912 19.1147 23.327 18.9727 23.1442C18.8413 22.9672 18.5824 22.9314 18.3993 23.0684H18.3993Z" fill="#43464F"/>
<path d="M30.26 23.7485C30.453 23.6267 30.5086 23.3728 30.3868 23.1748C30.265 22.9818 30.011 22.9209 29.8131 23.0427C29.7114 23.1086 27.3 24.5861 25.3146 23.0629C25.1319 22.9209 24.873 22.9563 24.7306 23.139C24.5886 23.3218 24.624 23.5807 24.8067 23.723C25.6443 24.3679 26.5329 24.5811 27.3453 24.5811C28.9096 24.5864 30.1839 23.7995 30.26 23.7485H30.26Z" fill="#43464F"/>
<path d="M5.33104 22.3125C3.42212 22.1347 3.26989 18.9767 3.26989 18.9462C3.25962 18.7228 3.07688 18.5503 2.8534 18.5503C2.62992 18.5503 2.44718 18.7281 2.43691 18.9462C2.43691 18.9767 2.28462 22.1347 0.375757 22.3125C0.162551 22.3327 0 22.5105 0 22.7237C0 22.9369 0.16256 23.1147 0.375757 23.1349C1.95993 23.2822 2.40155 26.3233 2.43691 27.4811C2.44187 27.7046 2.62992 27.8824 2.8534 27.8824C3.07688 27.8824 3.25962 27.7046 3.26989 27.4811C3.30531 26.3233 3.74729 23.2823 5.33104 23.1349C5.54425 23.1147 5.7068 22.9369 5.7068 22.7237C5.70645 22.5105 5.54424 22.333 5.33104 22.3125ZM2.85338 24.9272C2.60476 24.0946 2.2035 23.2567 1.56886 22.7595C2.2035 22.3483 2.60478 21.673 2.85338 21.0029C3.102 21.6729 3.50326 22.3483 4.13791 22.7595C3.50326 23.2571 3.10198 24.0947 2.85338 24.9272Z" fill="#F2D5B3"/>
<path d="M43.6384 9.30933C41.7294 9.13154 41.5772 5.97353 41.5772 5.94307C41.5669 5.7196 41.3842 5.54712 41.1607 5.54712C40.9372 5.54712 40.7545 5.7249 40.7442 5.94307C40.7442 5.97352 40.5919 9.13153 38.6831 9.30933C38.4699 9.32951 38.3073 9.5073 38.3073 9.7205C38.3073 9.93371 38.4699 10.1115 38.6831 10.1317C40.2672 10.279 40.7089 13.3202 40.7442 14.4779C40.7492 14.7014 40.9372 14.8792 41.1607 14.8792C41.3842 14.8792 41.5669 14.7014 41.5772 14.4779C41.6126 13.3202 42.0546 10.2791 43.6384 10.1317C43.8516 10.1115 44.0141 9.93371 44.0141 9.7205C44.0141 9.5073 43.8516 9.32952 43.6384 9.30933ZM41.1657 11.9241C40.9171 11.0915 40.5158 10.2535 39.8812 9.7563C40.5158 9.34512 40.9171 8.66978 41.1657 7.99969C41.4143 8.66975 41.8156 9.34514 42.4502 9.7563C41.8106 10.2535 41.4146 11.0915 41.1657 11.9241Z" fill="#F2D5B3"/>
<path d="M8.31661 30.8465C7.45354 30.7654 7.38232 29.2981 7.38232 29.2829C7.37736 29.1356 7.25554 29.019 7.10821 29.019C6.96088 29.019 6.83904 29.1359 6.83409 29.2829C6.83409 29.2981 6.75299 30.7654 5.8998 30.8465C5.75779 30.8617 5.65118 30.9786 5.65118 31.1206C5.65118 31.2626 5.75779 31.3844 5.8998 31.3947C6.61059 31.4606 6.81351 32.9228 6.83409 33.4307C6.83905 33.5781 6.96088 33.6999 7.10821 33.6999C7.25554 33.6999 7.38232 33.583 7.38232 33.4307C7.39755 32.9229 7.60579 31.4609 8.31661 31.3947C8.45863 31.3795 8.56523 31.2626 8.56523 31.1206C8.56558 30.9786 8.45898 30.8617 8.31661 30.8465ZM7.10824 31.938C6.99668 31.6334 6.83413 31.349 6.61065 31.1461C6.83412 30.9736 6.99668 30.7349 7.10824 30.4859C7.21981 30.7346 7.38236 30.9733 7.60583 31.1461C7.38237 31.349 7.22016 31.6334 7.10824 31.938Z" fill="#F2D5B3"/>
</svg>
