<svg width="51" height="43" viewBox="0 0 51 43" fill="none" xmlns="http://www.w3.org/2000/svg">
<path d="M47.8603 15.1295C46.3769 15.1295 45.3413 15.7909 45.3413 16.7375V26.045H31.0606L31.0799 12.7204L40.7327 7.17621C41.9226 6.49567 42.3356 4.97936 41.655 3.78947C41.6529 3.78569 41.6507 3.78202 41.6485 3.77824H41.6481C40.9571 2.59086 39.4372 2.18384 38.2452 2.86679L29.2378 8.03969C30.894 5.8039 30.4241 2.6488 28.1883 0.992686C25.9525 -0.663426 22.7974 -0.19364 21.1413 2.04215C19.8135 3.8346 19.8225 6.28681 21.1635 8.0695L12.099 2.80655C10.8401 2.21774 9.34125 2.73738 8.71697 3.97913C8.04651 5.1644 8.46382 6.66864 9.64909 7.33911C9.65434 7.34204 9.65959 7.34498 9.66484 7.34792L19.2974 12.7442L19.2919 26.045H15.7457C15.3998 25.0442 14.4595 24.3709 13.4006 24.3657H5.87758C5.59052 24.3684 5.3063 24.422 5.03792 24.5238V3.71012C5.03792 2.58016 3.93136 1.69506 2.51896 1.69506C1.10656 1.69506 0 2.58026 0 3.71012V39.9834C0 41.1133 1.10656 41.9984 2.51896 41.9984C3.93136 41.9984 5.03792 41.1132 5.03792 39.9834V34.4416H19.2885L19.2866 38.9912C19.3908 40.7457 20.89 42.0881 22.6453 41.9984C23.5873 42.0082 24.4943 41.641 25.1642 40.9784C25.8342 41.6409 26.7411 42.0082 27.6832 41.9984C29.4381 42.0881 30.937 40.7464 31.0418 38.9924L31.0484 34.4416H45.3413V40.3905C45.3413 41.3371 46.3769 41.9984 47.8603 41.9984C49.3436 41.9984 50.3792 41.3371 50.3792 40.3905V16.7375C50.3792 15.7909 49.3436 15.1295 47.8603 15.1295ZM3.35862 39.9834C3.34917 40.0522 3.06757 40.3191 2.51896 40.3191C1.96794 40.3191 1.68749 40.0522 1.67931 39.9834V3.71012C1.68749 3.64127 1.96794 3.37436 2.51896 3.37436C3.06757 3.37436 3.34959 3.64127 3.35862 3.71012V39.9834ZM19.2893 32.7623H5.03792V26.8847H5.06993C5.06185 26.4301 5.42301 26.0546 5.87758 26.045H13.4009C13.8554 26.0546 14.2166 26.4301 14.2085 26.8847C14.2085 27.3484 14.5845 27.7243 15.0482 27.7243H19.2914L19.2893 32.7623ZM25.1896 1.69506C27.0445 1.69506 28.5482 3.19877 28.5482 5.05367C28.5482 6.90857 27.0445 8.41229 25.1896 8.41229C23.3347 8.41229 21.831 6.90857 21.831 5.05367C21.8331 3.19961 23.3356 1.69716 25.1896 1.69506ZM29.8229 11.5061C29.5626 11.6557 29.4019 11.9327 29.4014 12.233L29.3625 38.9912C29.254 39.8151 28.5099 40.4034 27.6832 40.3191C26.9356 40.3762 26.2483 39.9071 26.0293 39.19V24.3657H24.35V38.8653C24.3381 38.9065 24.3296 38.9486 24.3246 38.9911C24.216 39.815 23.472 40.4033 22.6453 40.319C21.8186 40.4033 21.0747 39.8152 20.9659 38.9915L20.9774 12.2526C20.9775 11.9485 20.8133 11.6682 20.5481 11.5195L10.4858 5.88262C10.2994 5.77955 10.162 5.60606 10.1045 5.40087C10.0486 5.20187 10.0747 4.98881 10.177 4.80923C10.4074 4.4042 10.9375 4.08114 11.2668 4.26482L21.1474 10.0018C21.2755 10.0761 21.4208 10.1152 21.5689 10.1153H21.5693L28.7782 10.1121C28.9248 10.1121 29.0688 10.0736 29.1959 10.0006L39.0816 4.32307C39.4711 4.09867 39.9687 4.23113 40.1951 4.61947C40.4171 5.00371 40.2855 5.49523 39.9013 5.71721C39.8997 5.71805 39.8983 5.71899 39.8967 5.71983L29.8229 11.5061ZM45.3413 32.7623H31.0508L31.0582 27.7243H45.3413V32.7623ZM48.6999 40.1716C48.1574 40.3684 47.5631 40.3684 47.0206 40.1716V16.9564C47.5631 16.7596 48.1574 16.7596 48.6999 16.9564V40.1716Z" fill="#43464F"/>
<path fill-rule="evenodd" clip-rule="evenodd" d="M19.2919 26.045H15.7457C15.3998 25.0442 14.4595 24.3709 13.4006 24.3657H5.87758C5.59052 24.3685 5.3063 24.422 5.03792 24.5238V3.71013C5.03792 2.58017 3.93136 1.69507 2.51896 1.69507C1.10656 1.69507 0 2.58027 0 3.71013V39.9834C0 41.1133 1.10656 41.9985 2.51896 41.9985C3.93136 41.9985 5.03792 41.1132 5.03792 39.9834V34.4416H19.2885L19.2893 32.7623H5.03792V26.8847H5.06994C5.06185 26.4301 5.42301 26.0546 5.87758 26.045H13.4009C13.8554 26.0546 14.2166 26.4301 14.2085 26.8847C14.2085 27.3484 14.5845 27.7243 15.0482 27.7243H19.2914L19.2919 26.045ZM2.51896 40.3191C3.06757 40.3191 3.34917 40.0522 3.35862 39.9834V3.71013C3.34959 3.64128 3.06757 3.37438 2.51896 3.37438C1.96794 3.37438 1.68749 3.64128 1.67931 3.71013V39.9834C1.68749 40.0522 1.96794 40.3191 2.51896 40.3191Z" fill="#F2D5B3"/>
<path fill-rule="evenodd" clip-rule="evenodd" d="M47.8603 15.1295C46.3769 15.1295 45.3413 15.7909 45.3413 16.7375V26.045H31.0606L31.0582 27.7243H45.3413V32.7623H31.0508L31.0484 34.4416H45.3413V40.3905C45.3413 41.3371 46.3769 41.9985 47.8603 41.9985C49.3436 41.9985 50.3792 41.3371 50.3792 40.3905V16.7375C50.3792 15.7909 49.3436 15.1295 47.8603 15.1295ZM47.0206 40.1716C47.5631 40.3684 48.1574 40.3684 48.6999 40.1716V16.9564C48.1574 16.7596 47.5631 16.7596 47.0206 16.9564V40.1716Z" fill="#F2D5B3"/>
</svg>
